<?xml version="1.0" encoding="UTF-8"?>
<svg xmlns="http://www.w3.org/2000/svg" xmlns:xlink="http://www.w3.org/1999/xlink" width="3468" height="2400" viewBox="0 0 3468 2400">
<defs>
<linearGradient id="linear-pattern-0" gradientUnits="userSpaceOnUse" x1="-0.0941995" y1="0" x2="1.51563" y2="0" gradientTransform="matrix(-16.7343, -1514.46, 1514.46, -16.7343, 1745.89, 2276.35)">
<stop offset="0" stop-color="rgb(90.698242%, 64.849854%, 67.889404%)" stop-opacity="1"/>
<stop offset="0.25" stop-color="rgb(90.698242%, 64.849854%, 67.889404%)" stop-opacity="1"/>
<stop offset="0.265625" stop-color="rgb(90.698242%, 64.849854%, 67.889404%)" stop-opacity="1"/>
<stop offset="0.273438" stop-color="rgb(90.698242%, 64.849854%, 67.889404%)" stop-opacity="1"/>
<stop offset="0.277344" stop-color="rgb(90.713501%, 65.136719%, 68.231201%)" stop-opacity="1"/>
<stop offset="0.28125" stop-color="rgb(90.730286%, 65.423584%, 68.572998%)" stop-opacity="1"/>
<stop offset="0.285156" stop-color="rgb(90.924072%, 65.713501%, 68.753052%)" stop-opacity="1"/>
<stop offset="0.289062" stop-color="rgb(91.117859%, 66.003418%, 68.933105%)" stop-opacity="1"/>
<stop offset="0.296875" stop-color="rgb(91.127014%, 66.146851%, 69.111633%)" stop-opacity="1"/>
<stop offset="0.304688" stop-color="rgb(91.140747%, 66.400146%, 69.387817%)" stop-opacity="1"/>
<stop offset="0.308594" stop-color="rgb(91.165161%, 66.802979%, 69.685364%)" stop-opacity="1"/>
<stop offset="0.3125" stop-color="rgb(91.181946%, 67.097473%, 69.885254%)" stop-opacity="1"/>
<stop offset="0.316406" stop-color="rgb(91.192627%, 67.282104%, 70.106506%)" stop-opacity="1"/>
<stop offset="0.320312" stop-color="rgb(91.203308%, 67.468262%, 70.329285%)" stop-opacity="1"/>
<stop offset="0.324219" stop-color="rgb(91.25061%, 67.658997%, 70.550537%)" stop-opacity="1"/>
<stop offset="0.328125" stop-color="rgb(91.294861%, 67.848206%, 70.77179%)" stop-opacity="1"/>
<stop offset="0.335937" stop-color="rgb(91.448975%, 68.02063%, 70.822144%)" stop-opacity="1"/>
<stop offset="0.339844" stop-color="rgb(91.615295%, 68.414307%, 71.109009%)" stop-opacity="1"/>
<stop offset="0.34375" stop-color="rgb(91.627502%, 68.635559%, 71.34552%)" stop-opacity="1"/>
<stop offset="0.347656" stop-color="rgb(91.642761%, 68.821716%, 71.41571%)" stop-opacity="1"/>
<stop offset="0.351562" stop-color="rgb(91.654968%, 69.006348%, 71.484375%)" stop-opacity="1"/>
<stop offset="0.355469" stop-color="rgb(91.851807%, 69.337463%, 71.7453%)" stop-opacity="1"/>
<stop offset="0.359375" stop-color="rgb(92.047119%, 69.667053%, 72.006226%)" stop-opacity="1"/>
<stop offset="0.367188" stop-color="rgb(92.054749%, 69.778442%, 72.047424%)" stop-opacity="1"/>
<stop offset="0.371094" stop-color="rgb(92.228699%, 70.213318%, 72.323608%)" stop-opacity="1"/>
<stop offset="0.375" stop-color="rgb(92.39502%, 70.539856%, 72.56012%)" stop-opacity="1"/>
<stop offset="0.382812" stop-color="rgb(92.434692%, 70.658875%, 72.698975%)" stop-opacity="1"/>
<stop offset="0.386719" stop-color="rgb(92.497253%, 71.070862%, 73.033142%)" stop-opacity="1"/>
<stop offset="0.390625" stop-color="rgb(92.521667%, 71.362305%, 73.233032%)" stop-opacity="1"/>
<stop offset="0.398438" stop-color="rgb(92.704773%, 71.516418%, 73.377991%)" stop-opacity="1"/>
<stop offset="0.402344" stop-color="rgb(92.950439%, 71.975708%, 73.727417%)" stop-opacity="1"/>
<stop offset="0.40625" stop-color="rgb(93.011475%, 72.28241%, 73.933411%)" stop-opacity="1"/>
<stop offset="0.410156" stop-color="rgb(93.170166%, 72.608948%, 74.16687%)" stop-opacity="1"/>
<stop offset="0.414062" stop-color="rgb(93.328857%, 72.937012%, 74.40033%)" stop-opacity="1"/>
<stop offset="0.417969" stop-color="rgb(93.525696%, 73.191833%, 74.641418%)" stop-opacity="1"/>
<stop offset="0.421875" stop-color="rgb(93.721008%, 73.446655%, 74.884033%)" stop-opacity="1"/>
<stop offset="0.425781" stop-color="rgb(93.917847%, 73.683167%, 75.120544%)" stop-opacity="1"/>
<stop offset="0.429687" stop-color="rgb(94.113159%, 73.918152%, 75.35553%)" stop-opacity="1"/>
<stop offset="0.4375" stop-color="rgb(94.12384%, 74.098206%, 75.52948%)" stop-opacity="1"/>
<stop offset="0.441406" stop-color="rgb(94.198608%, 74.523926%, 75.892639%)" stop-opacity="1"/>
<stop offset="0.445313" stop-color="rgb(94.261169%, 74.769592%, 76.080322%)" stop-opacity="1"/>
<stop offset="0.453125" stop-color="rgb(94.407654%, 74.940491%, 76.255798%)" stop-opacity="1"/>
<stop offset="0.457031" stop-color="rgb(94.564819%, 75.300598%, 76.667786%)" stop-opacity="1"/>
<stop offset="0.460938" stop-color="rgb(94.577026%, 75.489807%, 76.905823%)" stop-opacity="1"/>
<stop offset="0.464844" stop-color="rgb(94.590759%, 75.691223%, 76.992798%)" stop-opacity="1"/>
<stop offset="0.46875" stop-color="rgb(94.602966%, 75.891113%, 77.079773%)" stop-opacity="1"/>
<stop offset="0.476562" stop-color="rgb(94.740295%, 76.095581%, 77.301025%)" stop-opacity="1"/>
<stop offset="0.480469" stop-color="rgb(94.950867%, 76.554871%, 77.664185%)" stop-opacity="1"/>
<stop offset="0.484375" stop-color="rgb(95.028687%, 76.809692%, 77.801514%)" stop-opacity="1"/>
<stop offset="0.492188" stop-color="rgb(95.036316%, 76.947021%, 77.975464%)" stop-opacity="1"/>
<stop offset="0.496094" stop-color="rgb(95.059204%, 77.278137%, 78.390503%)" stop-opacity="1"/>
<stop offset="0.5" stop-color="rgb(95.071411%, 77.468872%, 78.631592%)" stop-opacity="1"/>
<stop offset="0.503906" stop-color="rgb(95.101929%, 77.680969%, 78.88031%)" stop-opacity="1"/>
<stop offset="0.507812" stop-color="rgb(95.13092%, 77.891541%, 79.127502%)" stop-opacity="1"/>
<stop offset="0.511719" stop-color="rgb(95.321655%, 78.234863%, 79.246521%)" stop-opacity="1"/>
<stop offset="0.515625" stop-color="rgb(95.510864%, 78.575134%, 79.364014%)" stop-opacity="1"/>
<stop offset="0.519531" stop-color="rgb(95.518494%, 78.694153%, 79.579163%)" stop-opacity="1"/>
<stop offset="0.523438" stop-color="rgb(95.526123%, 78.81012%, 79.794312%)" stop-opacity="1"/>
<stop offset="0.527344" stop-color="rgb(95.713806%, 79.151917%, 79.91333%)" stop-opacity="1"/>
<stop offset="0.53125" stop-color="rgb(95.901489%, 79.493713%, 80.032349%)" stop-opacity="1"/>
<stop offset="0.535156" stop-color="rgb(95.928955%, 79.61731%, 80.249023%)" stop-opacity="1"/>
<stop offset="0.539062" stop-color="rgb(95.954895%, 79.73938%, 80.464172%)" stop-opacity="1"/>
<stop offset="0.542969" stop-color="rgb(96.162415%, 80.091858%, 80.757141%)" stop-opacity="1"/>
<stop offset="0.546875" stop-color="rgb(96.369934%, 80.44281%, 81.05011%)" stop-opacity="1"/>
<stop offset="0.554688" stop-color="rgb(96.382141%, 80.61676%, 81.240845%)" stop-opacity="1"/>
<stop offset="0.558594" stop-color="rgb(96.466064%, 80.996704%, 81.556702%)" stop-opacity="1"/>
<stop offset="0.5625" stop-color="rgb(96.537781%, 81.201172%, 81.681824%)" stop-opacity="1"/>
<stop offset="0.570312" stop-color="rgb(96.678162%, 81.410217%, 81.912231%)" stop-opacity="1"/>
<stop offset="0.578125" stop-color="rgb(96.820068%, 81.637573%, 82.164001%)" stop-opacity="1"/>
<stop offset="0.59375" stop-color="rgb(96.820068%, 81.651306%, 82.183838%)" stop-opacity="1"/>
<stop offset="0.625" stop-color="rgb(96.820068%, 81.651306%, 82.183838%)" stop-opacity="1"/>
<stop offset="0.75" stop-color="rgb(96.820068%, 81.651306%, 82.183838%)" stop-opacity="1"/>
<stop offset="1" stop-color="rgb(96.820068%, 81.651306%, 82.183838%)" stop-opacity="1"/>
</linearGradient>
<clipPath id="clip-0">
<path clip-rule="nonzero" d="M 0 613 L 3468 613 L 3468 2099 L 0 2099 Z M 0 613 "/>
</clipPath>
<clipPath id="clip-1">
<path clip-rule="nonzero" d="M 0 877.628906 L 0 2098.53125 L 3468 2098.53125 L 3468 942.238281 C 3447.839844 939.539062 3294.28125 1017.511719 3281.910156 1003.960938 C 3271.398438 992.441406 3255.671875 984.46875 3245.128906 971.140625 C 3226.421875 947.488281 3218.25 918.839844 3204.128906 893.558594 C 3188.300781 865.261719 3167.730469 838.039062 3154.289062 808.988281 C 3144.871094 788.609375 3144.429688 789.261719 3125.988281 784.828125 C 3114.898438 782.148438 3100.378906 778.921875 3089.480469 778.558594 C 3050.769531 777.269531 3022.808594 804.410156 2986.53125 809.5 C 2942.511719 815.699219 2894.859375 801.539062 2851.398438 812.441406 C 2829.75 817.859375 2809.449219 830.109375 2788.148438 836.160156 C 2746.25 848.058594 2690.121094 870.679688 2645.480469 866.410156 C 2609.421875 862.941406 2591.789062 821.28125 2559.671875 804.699219 C 2533.910156 791.398438 2506.25 782.21875 2480.5 768.03125 C 2459.71875 756.570312 2439.488281 743.460938 2416.949219 736.691406 C 2390.828125 728.839844 2364 714.609375 2336.210938 709.980469 C 2318.648438 707.070312 2300.378906 710.179688 2283.128906 707.269531 C 2241.988281 700.289062 2209.808594 678.570312 2179.378906 653.089844 C 2163.78125 640.019531 2123.828125 611.308594 2103.050781 613.25 C 2087.421875 614.699219 2060.390625 640.910156 2045.519531 648.96875 C 2030.878906 656.898438 2015.859375 667.46875 2000.96875 674 C 1970.078125 687.570312 1941.148438 673.871094 1913.328125 694.410156 C 1883.429688 716.480469 1859.25 734.148438 1822.730469 742.460938 C 1778.75 752.480469 1758.769531 757.460938 1731.539062 788.960938 C 1721.75 800.269531 1704.390625 824.519531 1690.078125 826.441406 C 1678.101562 828.050781 1649.738281 812.519531 1635.988281 809.421875 C 1614.589844 804.589844 1593.109375 801.511719 1571.53125 797.898438 C 1545.460938 793.53125 1534.160156 789.660156 1509.738281 799.011719 C 1495.199219 804.558594 1474.238281 818.621094 1458.871094 818.441406 C 1445.761719 818.289062 1423.789062 807.320312 1409.398438 804.21875 C 1381.25 798.179688 1354.851562 788.300781 1329.949219 773.851562 C 1317.289062 766.5 1303.460938 755.519531 1290.148438 753.820312 C 1287.039062 762.96875 1278.5 769.398438 1269.289062 770.480469 C 1263.890625 787.191406 1239.578125 788.738281 1225.058594 794.421875 C 1215.609375 798.109375 1200.210938 810.148438 1190.648438 811.058594 C 1177 812.359375 1177.699219 807.378906 1166.210938 795.410156 C 1149.191406 805.660156 1126.578125 815.960938 1108.460938 822.53125 C 1089.171875 829.519531 1066.75 819.761719 1049.519531 826.511719 C 1031.960938 833.390625 1016.289062 846 995.761719 851.238281 C 962.945312 859.628906 956.003906 871.871094 921.003906 860.03125 C 907.132812 855.339844 892.863281 856.308594 878.78125 851.808594 C 863.980469 847.078125 853.828125 831.941406 837.519531 828.96875 C 830.3125 853.550781 794.152344 848.78125 775.179688 855.320312 C 756.019531 861.929688 718.914062 888.21875 699.6875 886.210938 C 686.007812 884.789062 668.765625 870.46875 653.152344 867.871094 C 635.03125 864.871094 627.371094 863.421875 610.476562 853.589844 C 568.09375 828.921875 521.730469 805.460938 474.910156 793.410156 C 457.109375 812.441406 454.605469 815.511719 431.570312 804.609375 C 398.394531 788.898438 366.980469 775.101562 334.683594 757.570312 C 320.972656 750.140625 295.5 732.660156 279.429688 743.871094 C 268.585938 751.449219 273.25 767.839844 265.628906 776.609375 C 255.007812 788.828125 240.925781 778.300781 230.269531 785.128906 C 226.070312 787.828125 224.472656 799.339844 220.0625 803.71875 C 208.242188 815.511719 179.960938 831.589844 164.796875 839.109375 C 140.347656 851.25 125.601562 853.558594 101.617188 847.46875 C 81.953125 842.480469 78.261719 842.269531 63.738281 852.730469 C 42.023438 868.398438 24.515625 871.511719 0 877.628906 Z M 0 877.628906 "/>
</clipPath>
<clipPath id="clip-2">
<path clip-rule="nonzero" d="M 0 877.628906 L 0 2098.53125 L 3468 2098.53125 L 3468 942.238281 C 3447.839844 939.539062 3294.28125 1017.511719 3281.910156 1003.960938 C 3271.398438 992.441406 3255.671875 984.46875 3245.128906 971.140625 C 3226.421875 947.488281 3218.25 918.839844 3204.128906 893.558594 C 3188.300781 865.261719 3167.730469 838.039062 3154.289062 808.988281 C 3144.871094 788.609375 3144.429688 789.261719 3125.988281 784.828125 C 3114.898438 782.148438 3100.378906 778.921875 3089.480469 778.558594 C 3050.769531 777.269531 3022.808594 804.410156 2986.53125 809.5 C 2942.511719 815.699219 2894.859375 801.539062 2851.398438 812.441406 C 2829.75 817.859375 2809.449219 830.109375 2788.148438 836.160156 C 2746.25 848.058594 2690.121094 870.679688 2645.480469 866.410156 C 2609.421875 862.941406 2591.789062 821.28125 2559.671875 804.699219 C 2533.910156 791.398438 2506.25 782.21875 2480.5 768.03125 C 2459.71875 756.570312 2439.488281 743.460938 2416.949219 736.691406 C 2390.828125 728.839844 2364 714.609375 2336.210938 709.980469 C 2318.648438 707.070312 2300.378906 710.179688 2283.128906 707.269531 C 2241.988281 700.289062 2209.808594 678.570312 2179.378906 653.089844 C 2163.78125 640.019531 2123.828125 611.308594 2103.050781 613.25 C 2087.421875 614.699219 2060.390625 640.910156 2045.519531 648.96875 C 2030.878906 656.898438 2015.859375 667.46875 2000.96875 674 C 1970.078125 687.570312 1941.148438 673.871094 1913.328125 694.410156 C 1883.429688 716.480469 1859.25 734.148438 1822.730469 742.460938 C 1778.75 752.480469 1758.769531 757.460938 1731.539062 788.960938 C 1721.75 800.269531 1704.390625 824.519531 1690.078125 826.441406 C 1678.101562 828.050781 1649.738281 812.519531 1635.988281 809.421875 C 1614.589844 804.589844 1593.109375 801.511719 1571.53125 797.898438 C 1545.460938 793.53125 1534.160156 789.660156 1509.738281 799.011719 C 1495.199219 804.558594 1474.238281 818.621094 1458.871094 818.441406 C 1445.761719 818.289062 1423.789062 807.320312 1409.398438 804.21875 C 1381.25 798.179688 1354.851562 788.300781 1329.949219 773.851562 C 1317.289062 766.5 1303.460938 755.519531 1290.148438 753.820312 C 1287.039062 762.96875 1278.5 769.398438 1269.289062 770.480469 C 1263.890625 787.191406 1239.578125 788.738281 1225.058594 794.421875 C 1215.609375 798.109375 1200.210938 810.148438 1190.648438 811.058594 C 1177 812.359375 1177.699219 807.378906 1166.210938 795.410156 C 1149.191406 805.660156 1126.578125 815.960938 1108.460938 822.53125 C 1089.171875 829.519531 1066.75 819.761719 1049.519531 826.511719 C 1031.960938 833.390625 1016.289062 846 995.761719 851.238281 C 962.945312 859.628906 956.003906 871.871094 921.003906 860.03125 C 907.132812 855.339844 892.863281 856.308594 878.78125 851.808594 C 863.980469 847.078125 853.828125 831.941406 837.519531 828.96875 C 830.3125 853.550781 794.152344 848.78125 775.179688 855.320312 C 756.019531 861.929688 718.914062 888.21875 699.6875 886.210938 C 686.007812 884.789062 668.765625 870.46875 653.152344 867.871094 C 635.03125 864.871094 627.371094 863.421875 610.476562 853.589844 C 568.09375 828.921875 521.730469 805.460938 474.910156 793.410156 C 457.109375 812.441406 454.605469 815.511719 431.570312 804.609375 C 398.394531 788.898438 366.980469 775.101562 334.683594 757.570312 C 320.972656 750.140625 295.5 732.660156 279.429688 743.871094 C 268.585938 751.449219 273.25 767.839844 265.628906 776.609375 C 255.007812 788.828125 240.925781 778.300781 230.269531 785.128906 C 226.070312 787.828125 224.472656 799.339844 220.0625 803.71875 C 208.242188 815.511719 179.960938 831.589844 164.796875 839.109375 C 140.347656 851.25 125.601562 853.558594 101.617188 847.46875 C 81.953125 842.480469 78.261719 842.269531 63.738281 852.730469 C 42.023438 868.398438 24.515625 871.511719 0 877.628906 "/>
</clipPath>
<linearGradient id="linear-pattern-1" gradientUnits="userSpaceOnUse" x1="-0.10949" y1="0" x2="1.046429" y2="0" gradientTransform="matrix(33.468, 1359.64, 1359.64, -33.468, 1714.25, 718.07)">
<stop offset="0" stop-color="rgb(92.327881%, 68.399048%, 71.200562%)" stop-opacity="1"/>
<stop offset="0.0625" stop-color="rgb(92.327881%, 68.399048%, 71.200562%)" stop-opacity="1"/>
<stop offset="0.09375" stop-color="rgb(92.327881%, 68.399048%, 71.200562%)" stop-opacity="1"/>
<stop offset="0.101562" stop-color="rgb(92.327881%, 68.399048%, 71.122742%)" stop-opacity="1"/>
<stop offset="0.109375" stop-color="rgb(92.327881%, 68.397522%, 70.965576%)" stop-opacity="1"/>
<stop offset="0.125" stop-color="rgb(92.327881%, 68.397522%, 70.88623%)" stop-opacity="1"/>
<stop offset="0.1875" stop-color="rgb(92.320251%, 68.258667%, 70.835876%)" stop-opacity="1"/>
<stop offset="0.21875" stop-color="rgb(92.303467%, 68.074036%, 70.770264%)" stop-opacity="1"/>
<stop offset="0.234375" stop-color="rgb(92.120361%, 67.996216%, 70.730591%)" stop-opacity="1"/>
<stop offset="0.25" stop-color="rgb(91.944885%, 67.964172%, 70.576477%)" stop-opacity="1"/>
<stop offset="0.28125" stop-color="rgb(91.938782%, 67.855835%, 70.40863%)" stop-opacity="1"/>
<stop offset="0.3125" stop-color="rgb(91.928101%, 67.672729%, 70.343018%)" stop-opacity="1"/>
<stop offset="0.34375" stop-color="rgb(91.923523%, 67.59491%, 70.315552%)" stop-opacity="1"/>
<stop offset="0.359375" stop-color="rgb(91.923523%, 67.59491%, 70.272827%)" stop-opacity="1"/>
<stop offset="0.375" stop-color="rgb(91.918945%, 67.520142%, 70.089722%)" stop-opacity="1"/>
<stop offset="0.40625" stop-color="rgb(91.784668%, 67.314148%, 69.91272%)" stop-opacity="1"/>
<stop offset="0.4375" stop-color="rgb(91.598511%, 67.173767%, 69.877625%)" stop-opacity="1"/>
<stop offset="0.445313" stop-color="rgb(91.53595%, 67.066956%, 69.844055%)" stop-opacity="1"/>
<stop offset="0.453125" stop-color="rgb(91.525269%, 66.88385%, 69.779968%)" stop-opacity="1"/>
<stop offset="0.46875" stop-color="rgb(91.519165%, 66.796875%, 69.747925%)" stop-opacity="1"/>
<stop offset="0.5" stop-color="rgb(91.519165%, 66.796875%, 69.668579%)" stop-opacity="1"/>
<stop offset="0.53125" stop-color="rgb(91.511536%, 66.653442%, 69.462585%)" stop-opacity="1"/>
<stop offset="0.5625" stop-color="rgb(91.500854%, 66.468811%, 69.322205%)" stop-opacity="1"/>
<stop offset="0.59375" stop-color="rgb(91.497803%, 66.430664%, 69.308472%)" stop-opacity="1"/>
<stop offset="0.609375" stop-color="rgb(91.412354%, 66.415405%, 69.309998%)" stop-opacity="1"/>
<stop offset="0.625" stop-color="rgb(91.226196%, 66.271973%, 69.273376%)" stop-opacity="1"/>
<stop offset="0.65625" stop-color="rgb(91.122437%, 66.073608%, 69.210815%)" stop-opacity="1"/>
<stop offset="0.664063" stop-color="rgb(91.117859%, 66.003418%, 69.116211%)" stop-opacity="1"/>
<stop offset="0.671875" stop-color="rgb(91.117859%, 66.003418%, 68.962097%)" stop-opacity="1"/>
<stop offset="0.6875" stop-color="rgb(91.117859%, 66.003418%, 68.878174%)" stop-opacity="1"/>
<stop offset="0.71875" stop-color="rgb(91.117859%, 66.003418%, 68.878174%)" stop-opacity="1"/>
<stop offset="0.734375" stop-color="rgb(91.111755%, 65.898132%, 68.841553%)" stop-opacity="1"/>
<stop offset="0.75" stop-color="rgb(91.101074%, 65.715027%, 68.77594%)" stop-opacity="1"/>
<stop offset="0.78125" stop-color="rgb(91.096497%, 65.637207%, 68.748474%)" stop-opacity="1"/>
<stop offset="0.789063" stop-color="rgb(91.096497%, 65.637207%, 68.663025%)" stop-opacity="1"/>
<stop offset="0.796875" stop-color="rgb(91.098022%, 65.638733%, 68.508911%)" stop-opacity="1"/>
<stop offset="0.8125" stop-color="rgb(91.094971%, 65.589905%, 68.424988%)" stop-opacity="1"/>
<stop offset="0.828125" stop-color="rgb(91.011047%, 65.394592%, 68.362427%)" stop-opacity="1"/>
<stop offset="0.84375" stop-color="rgb(90.823364%, 65.231323%, 68.319702%)" stop-opacity="1"/>
<stop offset="0.875" stop-color="rgb(90.718079%, 65.213013%, 68.322754%)" stop-opacity="1"/>
<stop offset="0.890625" stop-color="rgb(90.708923%, 65.039062%, 68.115234%)" stop-opacity="1"/>
<stop offset="0.90625" stop-color="rgb(90.698242%, 64.857483%, 67.89856%)" stop-opacity="1"/>
<stop offset="0.9375" stop-color="rgb(90.698242%, 64.849854%, 67.889404%)" stop-opacity="1"/>
<stop offset="1" stop-color="rgb(90.698242%, 64.849854%, 67.889404%)" stop-opacity="1"/>
</linearGradient>
<clipPath id="clip-3">
<path clip-rule="nonzero" d="M 0 909 L 3468 909 L 3468 2309 L 0 2309 Z M 0 909 "/>
</clipPath>
<clipPath id="clip-4">
<path clip-rule="nonzero" d="M 0 1141.921875 L 0 2308.332031 L 3468 2308.332031 L 3468 1220.878906 C 3445.109375 1212.230469 3422.261719 1203.199219 3397.960938 1197.308594 C 3382.960938 1193.671875 3367.621094 1190.058594 3354.699219 1180.910156 C 3343.769531 1173.171875 3342.75 1166.621094 3329.460938 1164.480469 C 3320.199219 1163 3317.230469 1168.25 3306.429688 1164.320312 C 3298.949219 1161.589844 3292.558594 1153.871094 3285.5 1150.449219 C 3279 1147.308594 3266.03125 1142.539062 3258.410156 1140.441406 C 3236.511719 1134.410156 3197.398438 1132.671875 3201.789062 1099.578125 C 3187.609375 1093.300781 3172.921875 1094.5 3158.328125 1090.789062 C 3146.390625 1087.738281 3137.96875 1080.21875 3127.140625 1074.640625 C 3105.789062 1063.660156 3084.429688 1064.421875 3064.621094 1053.300781 C 3053.898438 1047.300781 3042 1047.5 3033.089844 1042.78125 C 3022.839844 1037.351562 3014.628906 1013.140625 3004 1009.601562 C 2994.050781 1006.28125 2965.300781 1025.171875 2948.308594 1026.011719 C 2939.089844 1026.460938 2926.371094 1027.519531 2918.03125 1024.519531 C 2907.089844 1020.601562 2898.949219 1008.070312 2887.261719 1005.039062 C 2862.328125 998.570312 2841.679688 1003.761719 2818.5 988.921875 C 2791.570312 971.679688 2782.828125 964.730469 2749.890625 963.25 C 2728.738281 962.28125 2719.140625 974.441406 2699.308594 968.550781 C 2678.820312 962.449219 2661.589844 950.539062 2641.128906 944.421875 C 2621.660156 938.589844 2603.890625 920.441406 2587.429688 909.191406 C 2582.578125 921.121094 2563.96875 936.578125 2551.460938 940.269531 C 2542.921875 942.800781 2537.019531 940.058594 2528.039062 940.25 C 2501.601562 940.808594 2474.429688 949.710938 2449.109375 956.960938 C 2421.941406 964.761719 2409.269531 979.261719 2380.460938 982.078125 C 2356.96875 984.359375 2333.449219 989.289062 2309.601562 988.351562 C 2280.25 987.199219 2250.171875 989.960938 2222.308594 1002.988281 C 2198.410156 1014.179688 2191 1026.519531 2163.578125 1028.089844 C 2143.859375 1029.230469 2128.351562 1032.839844 2109.828125 1041.21875 C 2073.871094 1057.5 2035.550781 1060.519531 1996.488281 1067.429688 C 1972.609375 1071.648438 1948.671875 1075.039062 1924.210938 1067.929688 C 1906.859375 1062.898438 1887.449219 1051.03125 1869.53125 1053.570312 C 1857.769531 1055.238281 1845.058594 1061.851562 1831.949219 1063.671875 C 1809.109375 1066.820312 1786.25 1071.328125 1763.519531 1076.089844 C 1746.558594 1079.648438 1717.570312 1092.378906 1700.621094 1088.960938 C 1693.128906 1087.449219 1682.21875 1076.898438 1674.738281 1073.53125 C 1660.398438 1067.078125 1644.421875 1061.808594 1629.261719 1057.75 C 1608.148438 1052.101562 1592.351562 1052.910156 1572.371094 1057.460938 C 1547.308594 1063.160156 1522.890625 1063.078125 1496.160156 1065.761719 C 1480.609375 1067.289062 1469.171875 1072.761719 1454.300781 1078.789062 C 1402.769531 1099.621094 1348.308594 1106.171875 1294.710938 1118.511719 C 1278.300781 1122.289062 1261.28125 1130.820312 1244.070312 1128.199219 C 1222.710938 1124.941406 1202.671875 1108.578125 1183.011719 1101.769531 C 1154.5 1091.921875 1135.738281 1092.789062 1108.25 1099.738281 C 1066.71875 1110.230469 1023.300781 1111.808594 980.746094 1111.769531 C 964.585938 1111.761719 946.675781 1109.460938 930.957031 1113.289062 C 908.480469 1118.789062 891.519531 1126.570312 866.910156 1128.441406 C 829.046875 1131.339844 789.101562 1127.898438 751.984375 1137.460938 C 726.574219 1143.988281 701.980469 1159.308594 678.464844 1167.78125 C 670.058594 1170.820312 659.371094 1168.171875 650.3125 1171.101562 C 636.042969 1175.691406 624.652344 1186.601562 612.5 1194.929688 C 585.386719 1213.480469 552.492188 1229.71875 520.4375 1237.011719 C 491.925781 1210.539062 441.457031 1203.75 405.75 1191.210938 C 388.441406 1185.121094 375.585938 1178.269531 358.703125 1168.050781 C 313.59375 1140.730469 263.082031 1124.640625 211.496094 1134.839844 C 173.269531 1142.390625 133.035156 1138.53125 94.304688 1141.070312 C 73.304688 1142.441406 51.269531 1149.980469 30.230469 1147.320312 C 26.074219 1146.800781 13.683594 1144.589844 0 1141.921875 Z M 0 1141.921875 "/>
</clipPath>
<clipPath id="clip-5">
<path clip-rule="nonzero" d="M 0 1141.921875 L 0 2308.332031 L 3468 2308.332031 L 3468 1220.878906 C 3445.109375 1212.230469 3422.261719 1203.199219 3397.960938 1197.308594 C 3382.960938 1193.671875 3367.621094 1190.058594 3354.699219 1180.910156 C 3343.769531 1173.171875 3342.75 1166.621094 3329.460938 1164.480469 C 3320.199219 1163 3317.230469 1168.25 3306.429688 1164.320312 C 3298.949219 1161.589844 3292.558594 1153.871094 3285.5 1150.449219 C 3279 1147.308594 3266.03125 1142.539062 3258.410156 1140.441406 C 3236.511719 1134.410156 3197.398438 1132.671875 3201.789062 1099.578125 C 3187.609375 1093.300781 3172.921875 1094.5 3158.328125 1090.789062 C 3146.390625 1087.738281 3137.96875 1080.21875 3127.140625 1074.640625 C 3105.789062 1063.660156 3084.429688 1064.421875 3064.621094 1053.300781 C 3053.898438 1047.300781 3042 1047.5 3033.089844 1042.78125 C 3022.839844 1037.351562 3014.628906 1013.140625 3004 1009.601562 C 2994.050781 1006.28125 2965.300781 1025.171875 2948.308594 1026.011719 C 2939.089844 1026.460938 2926.371094 1027.519531 2918.03125 1024.519531 C 2907.089844 1020.601562 2898.949219 1008.070312 2887.261719 1005.039062 C 2862.328125 998.570312 2841.679688 1003.761719 2818.5 988.921875 C 2791.570312 971.679688 2782.828125 964.730469 2749.890625 963.25 C 2728.738281 962.28125 2719.140625 974.441406 2699.308594 968.550781 C 2678.820312 962.449219 2661.589844 950.539062 2641.128906 944.421875 C 2621.660156 938.589844 2603.890625 920.441406 2587.429688 909.191406 C 2582.578125 921.121094 2563.96875 936.578125 2551.460938 940.269531 C 2542.921875 942.800781 2537.019531 940.058594 2528.039062 940.25 C 2501.601562 940.808594 2474.429688 949.710938 2449.109375 956.960938 C 2421.941406 964.761719 2409.269531 979.261719 2380.460938 982.078125 C 2356.96875 984.359375 2333.449219 989.289062 2309.601562 988.351562 C 2280.25 987.199219 2250.171875 989.960938 2222.308594 1002.988281 C 2198.410156 1014.179688 2191 1026.519531 2163.578125 1028.089844 C 2143.859375 1029.230469 2128.351562 1032.839844 2109.828125 1041.21875 C 2073.871094 1057.5 2035.550781 1060.519531 1996.488281 1067.429688 C 1972.609375 1071.648438 1948.671875 1075.039062 1924.210938 1067.929688 C 1906.859375 1062.898438 1887.449219 1051.03125 1869.53125 1053.570312 C 1857.769531 1055.238281 1845.058594 1061.851562 1831.949219 1063.671875 C 1809.109375 1066.820312 1786.25 1071.328125 1763.519531 1076.089844 C 1746.558594 1079.648438 1717.570312 1092.378906 1700.621094 1088.960938 C 1693.128906 1087.449219 1682.21875 1076.898438 1674.738281 1073.53125 C 1660.398438 1067.078125 1644.421875 1061.808594 1629.261719 1057.75 C 1608.148438 1052.101562 1592.351562 1052.910156 1572.371094 1057.460938 C 1547.308594 1063.160156 1522.890625 1063.078125 1496.160156 1065.761719 C 1480.609375 1067.289062 1469.171875 1072.761719 1454.300781 1078.789062 C 1402.769531 1099.621094 1348.308594 1106.171875 1294.710938 1118.511719 C 1278.300781 1122.289062 1261.28125 1130.820312 1244.070312 1128.199219 C 1222.710938 1124.941406 1202.671875 1108.578125 1183.011719 1101.769531 C 1154.5 1091.921875 1135.738281 1092.789062 1108.25 1099.738281 C 1066.71875 1110.230469 1023.300781 1111.808594 980.746094 1111.769531 C 964.585938 1111.761719 946.675781 1109.460938 930.957031 1113.289062 C 908.480469 1118.789062 891.519531 1126.570312 866.910156 1128.441406 C 829.046875 1131.339844 789.101562 1127.898438 751.984375 1137.460938 C 726.574219 1143.988281 701.980469 1159.308594 678.464844 1167.78125 C 670.058594 1170.820312 659.371094 1168.171875 650.3125 1171.101562 C 636.042969 1175.691406 624.652344 1186.601562 612.5 1194.929688 C 585.386719 1213.480469 552.492188 1229.71875 520.4375 1237.011719 C 491.925781 1210.539062 441.457031 1203.75 405.75 1191.210938 C 388.441406 1185.121094 375.585938 1178.269531 358.703125 1168.050781 C 313.59375 1140.730469 263.082031 1124.640625 211.496094 1134.839844 C 173.269531 1142.390625 133.035156 1138.53125 94.304688 1141.070312 C 73.304688 1142.441406 51.269531 1149.980469 30.230469 1147.320312 C 26.074219 1146.800781 13.683594 1144.589844 0 1141.921875 "/>
</clipPath>
<linearGradient id="linear-pattern-2" gradientUnits="userSpaceOnUse" x1="-0.140593" y1="0" x2="1.069699" y2="0" gradientTransform="matrix(-46.0126, 1259.07, 1259.07, 46.0126, 1759.62, 1024.01)">
<stop offset="0" stop-color="rgb(90.698242%, 64.849854%, 67.889404%)" stop-opacity="1"/>
<stop offset="0.125" stop-color="rgb(90.698242%, 64.849854%, 67.889404%)" stop-opacity="1"/>
<stop offset="0.15625" stop-color="rgb(90.698242%, 64.849854%, 67.889404%)" stop-opacity="1"/>
<stop offset="0.171875" stop-color="rgb(90.653992%, 64.842224%, 67.89093%)" stop-opacity="1"/>
<stop offset="0.1875" stop-color="rgb(90.475464%, 64.813232%, 67.828369%)" stop-opacity="1"/>
<stop offset="0.25" stop-color="rgb(90.341187%, 64.79187%, 67.678833%)" stop-opacity="1"/>
<stop offset="0.3125" stop-color="rgb(90.168762%, 64.764404%, 67.599487%)" stop-opacity="1"/>
<stop offset="0.375" stop-color="rgb(89.988708%, 64.733887%, 67.604065%)" stop-opacity="1"/>
<stop offset="0.40625" stop-color="rgb(89.984131%, 64.733887%, 67.604065%)" stop-opacity="1"/>
<stop offset="0.421875" stop-color="rgb(89.929199%, 64.724731%, 67.605591%)" stop-opacity="1"/>
<stop offset="0.4375" stop-color="rgb(89.750671%, 64.69574%, 67.610168%)" stop-opacity="1"/>
<stop offset="0.453125" stop-color="rgb(89.627075%, 64.675903%, 67.507935%)" stop-opacity="1"/>
<stop offset="0.46875" stop-color="rgb(89.627075%, 64.675903%, 67.356873%)" stop-opacity="1"/>
<stop offset="0.5" stop-color="rgb(89.627075%, 64.675903%, 67.30957%)" stop-opacity="1"/>
<stop offset="0.53125" stop-color="rgb(89.627075%, 64.675903%, 67.30957%)" stop-opacity="1"/>
<stop offset="0.546875" stop-color="rgb(89.627075%, 64.675903%, 67.30957%)" stop-opacity="1"/>
<stop offset="0.554688" stop-color="rgb(89.549255%, 64.663696%, 67.311096%)" stop-opacity="1"/>
<stop offset="0.5625" stop-color="rgb(89.367676%, 64.630127%, 67.312622%)" stop-opacity="1"/>
<stop offset="0.625" stop-color="rgb(89.11438%, 64.501953%, 67.196655%)" stop-opacity="1"/>
<stop offset="0.6875" stop-color="rgb(88.967896%, 64.39209%, 67.080688%)" stop-opacity="1"/>
<stop offset="0.71875" stop-color="rgb(88.800049%, 64.364624%, 67.085266%)" stop-opacity="1"/>
<stop offset="0.726562" stop-color="rgb(88.621521%, 64.335632%, 67.010498%)" stop-opacity="1"/>
<stop offset="0.734375" stop-color="rgb(88.612366%, 64.335632%, 66.85791%)" stop-opacity="1"/>
<stop offset="0.75" stop-color="rgb(88.612366%, 64.335632%, 66.789246%)" stop-opacity="1"/>
<stop offset="0.8125" stop-color="rgb(88.612366%, 64.335632%, 66.789246%)" stop-opacity="1"/>
<stop offset="0.828125" stop-color="rgb(88.563538%, 64.326477%, 66.790771%)" stop-opacity="1"/>
<stop offset="0.84375" stop-color="rgb(88.383484%, 64.297485%, 66.795349%)" stop-opacity="1"/>
<stop offset="0.875" stop-color="rgb(88.256836%, 64.276123%, 66.799927%)" stop-opacity="1"/>
<stop offset="1" stop-color="rgb(88.256836%, 64.276123%, 66.799927%)" stop-opacity="1"/>
</linearGradient>
<clipPath id="clip-6">
<path clip-rule="nonzero" d="M 0 1021 L 3468 1021 L 3468 2196 L 0 2196 Z M 0 1021 "/>
</clipPath>
<clipPath id="clip-7">
<path clip-rule="nonzero" d="M 3468 1376 L 3468 2195.601562 L 0 2195.601562 L 0 1280.109375 C 27.699219 1276.378906 58.25 1276.308594 82.125 1280.941406 C 106 1285.558594 129.6875 1296.128906 153.472656 1299.511719 C 174.480469 1302.480469 169.339844 1300.539062 188.472656 1283.601562 C 222.925781 1253.058594 266.53125 1235.519531 311.417969 1229.148438 C 355.707031 1222.851562 398.621094 1201.980469 442.894531 1197.46875 C 446.902344 1175.839844 467.636719 1146.210938 485.488281 1132.898438 C 502.261719 1120.398438 523.019531 1118.859375 540.234375 1104.601562 C 552.53125 1094.429688 560.925781 1073.691406 574.261719 1066.160156 C 586.667969 1059.171875 580.019531 1061.871094 591.0625 1065.429688 C 609.34375 1071.308594 631.621094 1090.738281 646.527344 1103.589844 C 656.628906 1112.261719 666.394531 1126.71875 683.089844 1124.660156 C 702.527344 1122.269531 727.015625 1105.28125 747.664062 1099.980469 C 793.964844 1088.078125 829.285156 1073.558594 868.574219 1044.5 C 893.742188 1025.878906 930.394531 1014.191406 959.867188 1027.871094 C 976.988281 1035.828125 988.085938 1052.558594 1005.859375 1061.390625 C 1030.628906 1073.699219 1058.828125 1073.101562 1085.929688 1072.078125 C 1133.199219 1070.308594 1172.109375 1084.570312 1214.761719 1103.058594 C 1251.511719 1119.011719 1275.601562 1137.960938 1317.609375 1132.921875 C 1337.578125 1130.519531 1357.171875 1120.289062 1377.410156 1119.328125 C 1392.359375 1118.621094 1406.628906 1124.808594 1421.210938 1126.648438 C 1437.988281 1128.769531 1455.390625 1131.300781 1471.261719 1132.980469 C 1495.691406 1135.550781 1524.839844 1125.101562 1548.238281 1130.691406 C 1554.328125 1132.148438 1562.46875 1139.628906 1569.460938 1142.101562 C 1598.609375 1152.410156 1635.46875 1148.929688 1665.839844 1153.800781 C 1694.199219 1158.339844 1720.800781 1167.839844 1748.480469 1174.929688 C 1772.441406 1181.058594 1797.359375 1186.128906 1819.601562 1194.558594 C 1856.289062 1208.46875 1896.710938 1213.109375 1936.171875 1221.300781 C 1953.910156 1224.980469 1967.378906 1229.019531 1983.96875 1235.398438 C 2021.359375 1249.820312 2065.519531 1245.480469 2101.011719 1262.558594 C 2117.519531 1270.5 2131.929688 1281.890625 2146.820312 1292.261719 C 2178.148438 1314.101562 2214.851562 1320.441406 2252.339844 1325.378906 C 2275.320312 1328.410156 2308.390625 1334.199219 2332.171875 1329.871094 C 2369.769531 1323.011719 2407.769531 1299.179688 2445.378906 1289.089844 C 2469.070312 1282.738281 2497.429688 1279.390625 2519.078125 1267.921875 C 2544.230469 1254.609375 2568.429688 1234.628906 2593.148438 1219.78125 C 2622.738281 1202 2654.539062 1186.898438 2684.949219 1170.058594 C 2695.949219 1163.96875 2702.75 1157.648438 2716.230469 1158.03125 C 2734.378906 1158.558594 2734.789062 1167.578125 2748.890625 1177.910156 C 2769.75 1193.179688 2795.570312 1202.539062 2816.941406 1218.28125 C 2837.75 1233.601562 2854.058594 1236.648438 2883.21875 1237.578125 C 2919.328125 1238.730469 2938.699219 1243.820312 2966.5 1258.441406 C 2986.289062 1268.859375 3006.171875 1273.71875 3025.261719 1286.070312 C 3078.960938 1320.800781 3127.820312 1331.269531 3191.171875 1333.738281 C 3209.148438 1334.449219 3221.660156 1338.210938 3238.261719 1342.640625 C 3285.578125 1355.300781 3336.800781 1343.039062 3382.621094 1354.5 C 3410.859375 1361.570312 3439.460938 1368.578125 3468 1376 Z M 3468 1376 "/>
</clipPath>
<clipPath id="clip-8">
<path clip-rule="nonzero" d="M 3468 1376 L 3468 2195.601562 L 0 2195.601562 L 0 1280.109375 C 27.699219 1276.378906 58.25 1276.308594 82.125 1280.941406 C 106 1285.558594 129.6875 1296.128906 153.472656 1299.511719 C 174.480469 1302.480469 169.339844 1300.539062 188.472656 1283.601562 C 222.925781 1253.058594 266.53125 1235.519531 311.417969 1229.148438 C 355.707031 1222.851562 398.621094 1201.980469 442.894531 1197.46875 C 446.902344 1175.839844 467.636719 1146.210938 485.488281 1132.898438 C 502.261719 1120.398438 523.019531 1118.859375 540.234375 1104.601562 C 552.53125 1094.429688 560.925781 1073.691406 574.261719 1066.160156 C 586.667969 1059.171875 580.019531 1061.871094 591.0625 1065.429688 C 609.34375 1071.308594 631.621094 1090.738281 646.527344 1103.589844 C 656.628906 1112.261719 666.394531 1126.71875 683.089844 1124.660156 C 702.527344 1122.269531 727.015625 1105.28125 747.664062 1099.980469 C 793.964844 1088.078125 829.285156 1073.558594 868.574219 1044.5 C 893.742188 1025.878906 930.394531 1014.191406 959.867188 1027.871094 C 976.988281 1035.828125 988.085938 1052.558594 1005.859375 1061.390625 C 1030.628906 1073.699219 1058.828125 1073.101562 1085.929688 1072.078125 C 1133.199219 1070.308594 1172.109375 1084.570312 1214.761719 1103.058594 C 1251.511719 1119.011719 1275.601562 1137.960938 1317.609375 1132.921875 C 1337.578125 1130.519531 1357.171875 1120.289062 1377.410156 1119.328125 C 1392.359375 1118.621094 1406.628906 1124.808594 1421.210938 1126.648438 C 1437.988281 1128.769531 1455.390625 1131.300781 1471.261719 1132.980469 C 1495.691406 1135.550781 1524.839844 1125.101562 1548.238281 1130.691406 C 1554.328125 1132.148438 1562.46875 1139.628906 1569.460938 1142.101562 C 1598.609375 1152.410156 1635.46875 1148.929688 1665.839844 1153.800781 C 1694.199219 1158.339844 1720.800781 1167.839844 1748.480469 1174.929688 C 1772.441406 1181.058594 1797.359375 1186.128906 1819.601562 1194.558594 C 1856.289062 1208.46875 1896.710938 1213.109375 1936.171875 1221.300781 C 1953.910156 1224.980469 1967.378906 1229.019531 1983.96875 1235.398438 C 2021.359375 1249.820312 2065.519531 1245.480469 2101.011719 1262.558594 C 2117.519531 1270.5 2131.929688 1281.890625 2146.820312 1292.261719 C 2178.148438 1314.101562 2214.851562 1320.441406 2252.339844 1325.378906 C 2275.320312 1328.410156 2308.390625 1334.199219 2332.171875 1329.871094 C 2369.769531 1323.011719 2407.769531 1299.179688 2445.378906 1289.089844 C 2469.070312 1282.738281 2497.429688 1279.390625 2519.078125 1267.921875 C 2544.230469 1254.609375 2568.429688 1234.628906 2593.148438 1219.78125 C 2622.738281 1202 2654.539062 1186.898438 2684.949219 1170.058594 C 2695.949219 1163.96875 2702.75 1157.648438 2716.230469 1158.03125 C 2734.378906 1158.558594 2734.789062 1167.578125 2748.890625 1177.910156 C 2769.75 1193.179688 2795.570312 1202.539062 2816.941406 1218.28125 C 2837.75 1233.601562 2854.058594 1236.648438 2883.21875 1237.578125 C 2919.328125 1238.730469 2938.699219 1243.820312 2966.5 1258.441406 C 2986.289062 1268.859375 3006.171875 1273.71875 3025.261719 1286.070312 C 3078.960938 1320.800781 3127.820312 1331.269531 3191.171875 1333.738281 C 3209.148438 1334.449219 3221.660156 1338.210938 3238.261719 1342.640625 C 3285.578125 1355.300781 3336.800781 1343.039062 3382.621094 1354.5 C 3410.859375 1361.570312 3439.460938 1368.578125 3468 1376 "/>
</clipPath>
<linearGradient id="linear-pattern-3" gradientUnits="userSpaceOnUse" x1="-0.00000000000865052" y1="0" x2="1" y2="0" gradientTransform="matrix(3468, 0, 0, 3468, 0.00000003, 1608.76)">
<stop offset="0" stop-color="rgb(81.602478%, 55.241394%, 59.640503%)" stop-opacity="1"/>
<stop offset="0.015625" stop-color="rgb(81.607056%, 55.406189%, 59.831238%)" stop-opacity="1"/>
<stop offset="0.03125" stop-color="rgb(81.613159%, 55.57251%, 60.023499%)" stop-opacity="1"/>
<stop offset="0.0625" stop-color="rgb(81.774902%, 55.596924%, 60.018921%)" stop-opacity="1"/>
<stop offset="0.078125" stop-color="rgb(81.950378%, 55.775452%, 60.063171%)" stop-opacity="1"/>
<stop offset="0.09375" stop-color="rgb(81.968689%, 55.94635%, 60.118103%)" stop-opacity="1"/>
<stop offset="0.125" stop-color="rgb(81.968689%, 55.957031%, 60.244751%)" stop-opacity="1"/>
<stop offset="0.140625" stop-color="rgb(81.973267%, 56.10199%, 60.429382%)" stop-opacity="1"/>
<stop offset="0.15625" stop-color="rgb(81.97937%, 56.269836%, 60.50415%)" stop-opacity="1"/>
<stop offset="0.1875" stop-color="rgb(81.985474%, 56.433105%, 60.557556%)" stop-opacity="1"/>
<stop offset="0.21875" stop-color="rgb(82.102966%, 56.680298%, 60.809326%)" stop-opacity="1"/>
<stop offset="0.234375" stop-color="rgb(82.250977%, 56.941223%, 61.112976%)" stop-opacity="1"/>
<stop offset="0.25" stop-color="rgb(82.417297%, 57.150269%, 61.218262%)" stop-opacity="1"/>
<stop offset="0.28125" stop-color="rgb(82.595825%, 57.336426%, 61.265564%)" stop-opacity="1"/>
<stop offset="0.296875" stop-color="rgb(82.644653%, 57.511902%, 61.419678%)" stop-opacity="1"/>
<stop offset="0.3125" stop-color="rgb(82.646179%, 57.557678%, 61.575317%)" stop-opacity="1"/>
<stop offset="0.328125" stop-color="rgb(82.650757%, 57.673645%, 61.656189%)" stop-opacity="1"/>
<stop offset="0.34375" stop-color="rgb(82.658386%, 57.843018%, 61.714172%)" stop-opacity="1"/>
<stop offset="0.375" stop-color="rgb(82.66449%, 58.006287%, 61.857605%)" stop-opacity="1"/>
<stop offset="0.390625" stop-color="rgb(82.777405%, 58.189392%, 62.049866%)" stop-opacity="1"/>
<stop offset="0.40625" stop-color="rgb(82.951355%, 58.277893%, 62.11853%)" stop-opacity="1"/>
<stop offset="0.421875" stop-color="rgb(83.023071%, 58.387756%, 62.149048%)" stop-opacity="1"/>
<stop offset="0.4375" stop-color="rgb(83.029175%, 58.558655%, 62.207031%)" stop-opacity="1"/>
<stop offset="0.46875" stop-color="rgb(83.113098%, 58.778381%, 62.322998%)" stop-opacity="1"/>
<stop offset="0.484375" stop-color="rgb(83.262634%, 59.05304%, 62.567139%)" stop-opacity="1"/>
<stop offset="0.5" stop-color="rgb(83.4198%, 59.19342%, 62.785339%)" stop-opacity="1"/>
<stop offset="0.53125" stop-color="rgb(83.596802%, 59.298706%, 62.875366%)" stop-opacity="1"/>
<stop offset="0.5625" stop-color="rgb(83.68988%, 59.483337%, 62.930298%)" stop-opacity="1"/>
<stop offset="0.578125" stop-color="rgb(83.769226%, 59.585571%, 63.020325%)" stop-opacity="1"/>
<stop offset="0.59375" stop-color="rgb(83.94165%, 59.608459%, 63.156128%)" stop-opacity="1"/>
<stop offset="0.609375" stop-color="rgb(84.043884%, 59.692383%, 63.258362%)" stop-opacity="1"/>
<stop offset="0.625" stop-color="rgb(84.051514%, 59.864807%, 63.316345%)" stop-opacity="1"/>
<stop offset="0.640625" stop-color="rgb(84.056091%, 59.968567%, 63.404846%)" stop-opacity="1"/>
<stop offset="0.65625" stop-color="rgb(84.109497%, 60.064697%, 63.607788%)" stop-opacity="1"/>
<stop offset="0.671875" stop-color="rgb(84.318542%, 60.351562%, 63.871765%)" stop-opacity="1"/>
<stop offset="0.6875" stop-color="rgb(84.594727%, 60.61554%, 63.998413%)" stop-opacity="1"/>
<stop offset="0.71875" stop-color="rgb(84.719849%, 60.8078%, 64.053345%)" stop-opacity="1"/>
<stop offset="0.734375" stop-color="rgb(84.727478%, 60.972595%, 64.149475%)" stop-opacity="1"/>
<stop offset="0.75" stop-color="rgb(84.733582%, 61.146545%, 64.353943%)" stop-opacity="1"/>
<stop offset="0.78125" stop-color="rgb(84.739685%, 61.273193%, 64.505005%)" stop-opacity="1"/>
<stop offset="0.796875" stop-color="rgb(84.741211%, 61.308289%, 64.515686%)" stop-opacity="1"/>
<stop offset="0.8125" stop-color="rgb(84.78241%, 61.489868%, 64.575195%)" stop-opacity="1"/>
<stop offset="0.84375" stop-color="rgb(84.963989%, 61.654663%, 64.616394%)" stop-opacity="1"/>
<stop offset="0.859375" stop-color="rgb(85.105896%, 61.676025%, 64.633179%)" stop-opacity="1"/>
<stop offset="0.875" stop-color="rgb(85.107422%, 61.697388%, 64.787292%)" stop-opacity="1"/>
<stop offset="0.90625" stop-color="rgb(85.113525%, 61.872864%, 64.971924%)" stop-opacity="1"/>
<stop offset="0.921875" stop-color="rgb(85.134888%, 62.04834%, 65.039062%)" stop-opacity="1"/>
<stop offset="0.9375" stop-color="rgb(85.298157%, 62.333679%, 65.216064%)" stop-opacity="1"/>
<stop offset="0.96875" stop-color="rgb(85.617065%, 62.6297%, 65.374756%)" stop-opacity="1"/>
<stop offset="0.984375" stop-color="rgb(85.78949%, 62.831116%, 65.432739%)" stop-opacity="1"/>
<stop offset="1" stop-color="rgb(85.797119%, 63.000488%, 65.640259%)" stop-opacity="1"/>
</linearGradient>
<clipPath id="clip-9">
<path clip-rule="nonzero" d="M 0 1194 L 3468 1194 L 3468 2187 L 0 2187 Z M 0 1194 "/>
</clipPath>
<clipPath id="clip-10">
<path clip-rule="nonzero" d="M 0 1385.351562 L 0 2187 L 3468 2187 L 3468 1656.511719 C 3444.871094 1657.011719 3418.808594 1655.921875 3402.660156 1659.910156 C 3380.25 1665.410156 3360.371094 1671.121094 3336.378906 1672.910156 C 3256.480469 1678.898438 3174.410156 1671.808594 3099.019531 1705.351562 C 3076.839844 1715.21875 3058.949219 1725.21875 3033.648438 1722.371094 C 2995.058594 1718.03125 2956.921875 1696.738281 2919.050781 1687.011719 C 2878.550781 1676.609375 2833.699219 1681.558594 2794.960938 1667.828125 C 2748.429688 1651.351562 2694.421875 1625.648438 2654.171875 1596.78125 C 2631 1580.160156 2609.359375 1542.191406 2582.53125 1534.238281 C 2564.851562 1529 2533.789062 1538.621094 2515.628906 1538.539062 C 2501.660156 1538.46875 2487.550781 1540.761719 2474.289062 1540.648438 C 2452.398438 1540.488281 2430.988281 1537.941406 2408.46875 1536.328125 C 2399.121094 1535.671875 2388.71875 1538.058594 2379.421875 1536.429688 C 2367.25 1534.300781 2357.808594 1525.550781 2345.328125 1524.089844 C 2338.890625 1534.328125 2329.519531 1535.488281 2317.96875 1536.640625 C 2289.949219 1539.421875 2257.449219 1530.53125 2228.578125 1530.148438 C 2201.71875 1529.769531 2177.988281 1516.371094 2151.371094 1517.28125 C 2151.148438 1499.46875 2150.96875 1470.121094 2131.039062 1461.648438 C 2124.738281 1458.980469 2118.949219 1463.859375 2112.621094 1463.308594 C 2093.429688 1461.691406 2079.679688 1456.511719 2061.269531 1451.089844 C 2042.789062 1445.640625 2025.550781 1444.878906 2006.679688 1444.910156 C 1987.421875 1444.929688 1970.671875 1440.351562 1951.511719 1438.421875 C 1929.410156 1436.199219 1908.960938 1431.730469 1887.460938 1428.769531 C 1865.601562 1425.78125 1839.628906 1428.589844 1817.28125 1429.699219 C 1797.929688 1430.671875 1784.339844 1440.050781 1765.320312 1440.199219 C 1727.5 1440.488281 1689.191406 1427.949219 1655.289062 1413.058594 C 1634.109375 1403.75 1615.578125 1392.148438 1595.378906 1381.179688 C 1574.449219 1369.789062 1578.46875 1377.238281 1555.691406 1377.75 C 1531.210938 1378.28125 1493.351562 1363.78125 1469.070312 1356.109375 C 1438.589844 1346.460938 1407.519531 1337.179688 1377.300781 1326.140625 C 1344.980469 1314.320312 1322.570312 1295 1291.878906 1280.699219 C 1280.839844 1275.550781 1271.148438 1274.261719 1258.980469 1271.28125 C 1232.929688 1264.890625 1219.230469 1245.570312 1195.761719 1232.910156 C 1181.199219 1225.070312 1170.238281 1225.53125 1154.398438 1220.550781 C 1140 1216.03125 1136.691406 1209.359375 1125.210938 1201.261719 C 1102.160156 1185 1074.28125 1203.25 1052.441406 1220.511719 C 1034.398438 1234.761719 1031.039062 1244.351562 1004.289062 1247.839844 C 975.707031 1251.570312 947.210938 1250.828125 921.058594 1260.191406 C 902.203125 1266.941406 888.773438 1275.378906 873.34375 1287.441406 C 852.160156 1303.988281 834.683594 1303.28125 807.808594 1304.238281 C 776.191406 1305.359375 742.335938 1308.410156 711.761719 1314.53125 C 696 1317.679688 680.609375 1321.128906 664.847656 1323.109375 C 640.90625 1326.121094 610.410156 1320.890625 587.746094 1327.089844 C 556.542969 1335.621094 532.789062 1368.941406 495.28125 1360.75 C 476.894531 1356.738281 459.269531 1340.410156 441.324219 1333.269531 C 408.480469 1320.199219 374.679688 1309.300781 342.011719 1294.941406 C 319.132812 1284.871094 297.296875 1271.441406 273.863281 1261.769531 C 255.941406 1254.378906 260.964844 1253.710938 245.589844 1262.859375 C 235.648438 1268.78125 235.957031 1274.410156 221.488281 1277.601562 C 207.085938 1280.78125 191.65625 1280.21875 176.972656 1281.230469 C 136.140625 1284.03125 128.769531 1291.980469 104.46875 1320.851562 C 75.316406 1355.46875 35.160156 1363.660156 0 1385.351562 Z M 0 1385.351562 "/>
</clipPath>
<clipPath id="clip-11">
<path clip-rule="nonzero" d="M 0 1385.351562 L 0 2187 L 3468 2187 L 3468 1656.511719 C 3444.871094 1657.011719 3418.808594 1655.921875 3402.660156 1659.910156 C 3380.25 1665.410156 3360.371094 1671.121094 3336.378906 1672.910156 C 3256.480469 1678.898438 3174.410156 1671.808594 3099.019531 1705.351562 C 3076.839844 1715.21875 3058.949219 1725.21875 3033.648438 1722.371094 C 2995.058594 1718.03125 2956.921875 1696.738281 2919.050781 1687.011719 C 2878.550781 1676.609375 2833.699219 1681.558594 2794.960938 1667.828125 C 2748.429688 1651.351562 2694.421875 1625.648438 2654.171875 1596.78125 C 2631 1580.160156 2609.359375 1542.191406 2582.53125 1534.238281 C 2564.851562 1529 2533.789062 1538.621094 2515.628906 1538.539062 C 2501.660156 1538.46875 2487.550781 1540.761719 2474.289062 1540.648438 C 2452.398438 1540.488281 2430.988281 1537.941406 2408.46875 1536.328125 C 2399.121094 1535.671875 2388.71875 1538.058594 2379.421875 1536.429688 C 2367.25 1534.300781 2357.808594 1525.550781 2345.328125 1524.089844 C 2338.890625 1534.328125 2329.519531 1535.488281 2317.96875 1536.640625 C 2289.949219 1539.421875 2257.449219 1530.53125 2228.578125 1530.148438 C 2201.71875 1529.769531 2177.988281 1516.371094 2151.371094 1517.28125 C 2151.148438 1499.46875 2150.96875 1470.121094 2131.039062 1461.648438 C 2124.738281 1458.980469 2118.949219 1463.859375 2112.621094 1463.308594 C 2093.429688 1461.691406 2079.679688 1456.511719 2061.269531 1451.089844 C 2042.789062 1445.640625 2025.550781 1444.878906 2006.679688 1444.910156 C 1987.421875 1444.929688 1970.671875 1440.351562 1951.511719 1438.421875 C 1929.410156 1436.199219 1908.960938 1431.730469 1887.460938 1428.769531 C 1865.601562 1425.78125 1839.628906 1428.589844 1817.28125 1429.699219 C 1797.929688 1430.671875 1784.339844 1440.050781 1765.320312 1440.199219 C 1727.5 1440.488281 1689.191406 1427.949219 1655.289062 1413.058594 C 1634.109375 1403.75 1615.578125 1392.148438 1595.378906 1381.179688 C 1574.449219 1369.789062 1578.46875 1377.238281 1555.691406 1377.75 C 1531.210938 1378.28125 1493.351562 1363.78125 1469.070312 1356.109375 C 1438.589844 1346.460938 1407.519531 1337.179688 1377.300781 1326.140625 C 1344.980469 1314.320312 1322.570312 1295 1291.878906 1280.699219 C 1280.839844 1275.550781 1271.148438 1274.261719 1258.980469 1271.28125 C 1232.929688 1264.890625 1219.230469 1245.570312 1195.761719 1232.910156 C 1181.199219 1225.070312 1170.238281 1225.53125 1154.398438 1220.550781 C 1140 1216.03125 1136.691406 1209.359375 1125.210938 1201.261719 C 1102.160156 1185 1074.28125 1203.25 1052.441406 1220.511719 C 1034.398438 1234.761719 1031.039062 1244.351562 1004.289062 1247.839844 C 975.707031 1251.570312 947.210938 1250.828125 921.058594 1260.191406 C 902.203125 1266.941406 888.773438 1275.378906 873.34375 1287.441406 C 852.160156 1303.988281 834.683594 1303.28125 807.808594 1304.238281 C 776.191406 1305.359375 742.335938 1308.410156 711.761719 1314.53125 C 696 1317.679688 680.609375 1321.128906 664.847656 1323.109375 C 640.90625 1326.121094 610.410156 1320.890625 587.746094 1327.089844 C 556.542969 1335.621094 532.789062 1368.941406 495.28125 1360.75 C 476.894531 1356.738281 459.269531 1340.410156 441.324219 1333.269531 C 408.480469 1320.199219 374.679688 1309.300781 342.011719 1294.941406 C 319.132812 1284.871094 297.296875 1271.441406 273.863281 1261.769531 C 255.941406 1254.378906 260.964844 1253.710938 245.589844 1262.859375 C 235.648438 1268.78125 235.957031 1274.410156 221.488281 1277.601562 C 207.085938 1280.78125 191.65625 1280.21875 176.972656 1281.230469 C 136.140625 1284.03125 128.769531 1291.980469 104.46875 1320.851562 C 75.316406 1355.46875 35.160156 1363.660156 0 1385.351562 "/>
</clipPath>
<linearGradient id="linear-pattern-4" gradientUnits="userSpaceOnUse" x1="-0.941685" y1="0" x2="1.071559" y2="0" gradientTransform="matrix(-1501.87, 876.088, 876.088, 1501.87, 1871.73, 1698.03)">
<stop offset="0" stop-color="rgb(74.395752%, 51.028442%, 54.942322%)" stop-opacity="1"/>
<stop offset="0.25" stop-color="rgb(74.395752%, 51.028442%, 54.942322%)" stop-opacity="1"/>
<stop offset="0.375" stop-color="rgb(74.395752%, 51.028442%, 54.942322%)" stop-opacity="1"/>
<stop offset="0.4375" stop-color="rgb(74.395752%, 51.028442%, 54.942322%)" stop-opacity="1"/>
<stop offset="0.46875" stop-color="rgb(74.359131%, 51.014709%, 54.930115%)" stop-opacity="1"/>
<stop offset="0.476562" stop-color="rgb(74.047852%, 50.872803%, 54.8172%)" stop-opacity="1"/>
<stop offset="0.484375" stop-color="rgb(73.634338%, 50.520325%, 54.566956%)" stop-opacity="1"/>
<stop offset="0.492188" stop-color="rgb(73.339844%, 50.274658%, 54.304504%)" stop-opacity="1"/>
<stop offset="0.5" stop-color="rgb(73.048401%, 50.151062%, 54.092407%)" stop-opacity="1"/>
<stop offset="0.507812" stop-color="rgb(72.740173%, 49.884033%, 53.939819%)" stop-opacity="1"/>
<stop offset="0.515625" stop-color="rgb(72.296143%, 49.617004%, 53.683472%)" stop-opacity="1"/>
<stop offset="0.523438" stop-color="rgb(72.009277%, 49.502563%, 53.466797%)" stop-opacity="1"/>
<stop offset="0.53125" stop-color="rgb(71.708679%, 49.240112%, 53.201294%)" stop-opacity="1"/>
<stop offset="0.539062" stop-color="rgb(71.260071%, 48.965454%, 52.954102%)" stop-opacity="1"/>
<stop offset="0.546875" stop-color="rgb(70.814514%, 48.686218%, 52.816772%)" stop-opacity="1"/>
<stop offset="0.554688" stop-color="rgb(70.530701%, 48.432922%, 52.554321%)" stop-opacity="1"/>
<stop offset="0.5625" stop-color="rgb(70.239258%, 48.175049%, 52.294922%)" stop-opacity="1"/>
<stop offset="0.570312" stop-color="rgb(69.955444%, 47.920227%, 52.157593%)" stop-opacity="1"/>
<stop offset="0.578125" stop-color="rgb(69.667053%, 47.662354%, 52.017212%)" stop-opacity="1"/>
<stop offset="0.585938" stop-color="rgb(69.0979%, 47.303772%, 51.66626%)" stop-opacity="1"/>
<stop offset="0.59375" stop-color="rgb(68.658447%, 47.184753%, 51.464844%)" stop-opacity="1"/>
<stop offset="0.601562" stop-color="rgb(68.218994%, 46.917725%, 51.33667%)" stop-opacity="1"/>
<stop offset="0.609375" stop-color="rgb(67.810059%, 46.577454%, 51.100159%)" stop-opacity="1"/>
<stop offset="0.617188" stop-color="rgb(67.527771%, 46.328735%, 50.846863%)" stop-opacity="1"/>
<stop offset="0.621094" stop-color="rgb(66.981506%, 45.843506%, 50.460815%)" stop-opacity="1"/>
<stop offset="0.625" stop-color="rgb(66.589355%, 45.515442%, 50.228882%)" stop-opacity="1"/>
<stop offset="0.632812" stop-color="rgb(66.423035%, 45.484924%, 50.115967%)" stop-opacity="1"/>
<stop offset="0.640625" stop-color="rgb(65.986633%, 45.223999%, 49.868774%)" stop-opacity="1"/>
<stop offset="0.648438" stop-color="rgb(65.583801%, 44.895935%, 49.633789%)" stop-opacity="1"/>
<stop offset="0.65625" stop-color="rgb(65.301514%, 44.647217%, 49.386597%)" stop-opacity="1"/>
<stop offset="0.664062" stop-color="rgb(65.026855%, 44.407654%, 49.137878%)" stop-opacity="1"/>
<stop offset="0.671875" stop-color="rgb(64.64386%, 44.088745%, 48.904419%)" stop-opacity="1"/>
<stop offset="0.679688" stop-color="rgb(64.221191%, 43.823242%, 48.765564%)" stop-opacity="1"/>
<stop offset="0.6875" stop-color="rgb(63.9328%, 43.708801%, 48.576355%)" stop-opacity="1"/>
<stop offset="0.695312" stop-color="rgb(63.557434%, 43.415833%, 48.251343%)" stop-opacity="1"/>
<stop offset="0.703125" stop-color="rgb(63.140869%, 43.034363%, 48.057556%)" stop-opacity="1"/>
<stop offset="0.710938" stop-color="rgb(62.852478%, 42.774963%, 47.920227%)" stop-opacity="1"/>
<stop offset="0.71875" stop-color="rgb(62.483215%, 42.58728%, 47.650146%)" stop-opacity="1"/>
<stop offset="0.726562" stop-color="rgb(62.095642%, 42.292786%, 47.317505%)" stop-opacity="1"/>
<stop offset="0.734375" stop-color="rgb(61.810303%, 42.044067%, 47.151184%)" stop-opacity="1"/>
<stop offset="0.742188" stop-color="rgb(61.424255%, 41.801453%, 47.027588%)" stop-opacity="1"/>
<stop offset="0.75" stop-color="rgb(60.917664%, 41.491699%, 46.740723%)" stop-opacity="1"/>
<stop offset="0.757812" stop-color="rgb(60.507202%, 41.285706%, 46.44165%)" stop-opacity="1"/>
<stop offset="0.765625" stop-color="rgb(60.220337%, 41.065979%, 46.276855%)" stop-opacity="1"/>
<stop offset="0.773438" stop-color="rgb(59.959412%, 40.838623%, 46.066284%)" stop-opacity="1"/>
<stop offset="0.78125" stop-color="rgb(59.609985%, 40.551758%, 45.755005%)" stop-opacity="1"/>
<stop offset="0.789062" stop-color="rgb(59.12323%, 40.232849%, 45.51239%)" stop-opacity="1"/>
<stop offset="0.796875" stop-color="rgb(58.604431%, 39.91394%, 45.295715%)" stop-opacity="1"/>
<stop offset="0.804688" stop-color="rgb(58.280945%, 39.665222%, 45.068359%)" stop-opacity="1"/>
<stop offset="0.8125" stop-color="rgb(58.027649%, 39.448547%, 44.836426%)" stop-opacity="1"/>
<stop offset="0.820312" stop-color="rgb(57.687378%, 39.164734%, 44.610596%)" stop-opacity="1"/>
<stop offset="0.828125" stop-color="rgb(57.319641%, 38.864136%, 44.386292%)" stop-opacity="1"/>
<stop offset="0.835938" stop-color="rgb(56.851196%, 38.552856%, 44.168091%)" stop-opacity="1"/>
<stop offset="0.84375" stop-color="rgb(56.520081%, 38.398743%, 43.974304%)" stop-opacity="1"/>
<stop offset="0.851562" stop-color="rgb(56.269836%, 38.224792%, 43.760681%)" stop-opacity="1"/>
<stop offset="0.859375" stop-color="rgb(55.845642%, 37.942505%, 43.54248%)" stop-opacity="1"/>
<stop offset="0.867188" stop-color="rgb(55.435181%, 37.728882%, 43.351746%)" stop-opacity="1"/>
<stop offset="0.875" stop-color="rgb(55.075073%, 37.477112%, 43.078613%)" stop-opacity="1"/>
<stop offset="0.882812" stop-color="rgb(54.696655%, 37.229919%, 42.826843%)" stop-opacity="1"/>
<stop offset="0.890625" stop-color="rgb(54.402161%, 37.016296%, 42.671204%)" stop-opacity="1"/>
<stop offset="0.898438" stop-color="rgb(54.08783%, 36.753845%, 42.424011%)" stop-opacity="1"/>
<stop offset="0.90625" stop-color="rgb(53.645325%, 36.460876%, 42.112732%)" stop-opacity="1"/>
<stop offset="0.914062" stop-color="rgb(53.222656%, 36.210632%, 41.925049%)" stop-opacity="1"/>
<stop offset="0.921875" stop-color="rgb(52.926636%, 35.998535%, 41.804504%)" stop-opacity="1"/>
<stop offset="0.929688" stop-color="rgb(52.700806%, 35.749817%, 41.560364%)" stop-opacity="1"/>
<stop offset="0.9375" stop-color="rgb(52.407837%, 35.472107%, 41.244507%)" stop-opacity="1"/>
<stop offset="0.945312" stop-color="rgb(52.055359%, 35.188293%, 40.988159%)" stop-opacity="1"/>
<stop offset="0.953125" stop-color="rgb(51.77002%, 34.94873%, 40.823364%)" stop-opacity="1"/>
<stop offset="0.960938" stop-color="rgb(51.45874%, 34.675598%, 40.632629%)" stop-opacity="1"/>
<stop offset="0.96875" stop-color="rgb(51.164246%, 34.417725%, 40.403748%)" stop-opacity="1"/>
<stop offset="1" stop-color="rgb(51.055908%, 34.327698%, 40.306091%)" stop-opacity="1"/>
</linearGradient>
<clipPath id="clip-12">
<path clip-rule="nonzero" d="M 0 1105 L 3468 1105 L 3468 2196 L 0 2196 Z M 0 1105 "/>
</clipPath>
<clipPath id="clip-13">
<path clip-rule="nonzero" d="M 0 2018.621094 L 0 2195.140625 L 3468 2195.140625 L 3468 1105.238281 C 3447.671875 1111.960938 3429.429688 1126.410156 3414.808594 1142.78125 C 3406.53125 1152.058594 3406.941406 1153.011719 3398.128906 1157.578125 C 3392.078125 1160.71875 3380.230469 1161.890625 3373 1164.578125 C 3337.339844 1177.851562 3318.578125 1194.878906 3291.769531 1220.359375 C 3264.941406 1245.890625 3221.558594 1241.96875 3188.339844 1232.589844 C 3135.921875 1217.800781 3085.128906 1219.078125 3031.890625 1214.199219 C 2995.488281 1210.878906 2953.53125 1184.070312 2917.441406 1191.199219 C 2907.21875 1193.21875 2893.839844 1204.351562 2883.050781 1207.769531 C 2866.078125 1213.148438 2847.859375 1211.960938 2829.578125 1213.949219 C 2798.339844 1217.359375 2768.761719 1221.570312 2736.851562 1218.390625 C 2721.429688 1216.859375 2710.210938 1212.46875 2695.621094 1214.058594 C 2677.261719 1216.050781 2657.371094 1216.96875 2642.269531 1227.738281 C 2619.460938 1244.011719 2599.210938 1266.210938 2576.878906 1283.609375 C 2552.230469 1302.808594 2522.640625 1296.789062 2496.101562 1313.398438 C 2471.148438 1329.019531 2442.820312 1337.808594 2415.359375 1349.039062 C 2380.121094 1363.449219 2342.859375 1372.898438 2308.859375 1389.871094 C 2304.171875 1392.210938 2294.320312 1400.710938 2288.660156 1400.378906 C 2281.839844 1399.988281 2280.878906 1391.539062 2275.210938 1389.941406 C 2232.578125 1377.871094 2188.789062 1401.03125 2147.941406 1408.589844 C 2091.539062 1419.058594 2016.621094 1423.589844 1968.460938 1459.171875 C 1954.148438 1469.730469 1946.21875 1492.351562 1930.011719 1498.648438 C 1911.089844 1506 1879.261719 1496.539062 1859.050781 1496.460938 C 1811.269531 1496.269531 1766.011719 1476.410156 1717.808594 1483.339844 C 1687.199219 1487.738281 1649.320312 1493.449219 1628.660156 1518.191406 C 1612.019531 1538.128906 1601.558594 1551.351562 1578.148438 1563.910156 C 1521.949219 1594.089844 1454.980469 1602.890625 1407.640625 1647.960938 C 1356.398438 1696.769531 1293.601562 1713.878906 1226.890625 1739.871094 C 1199.140625 1750.679688 1172.101562 1765.738281 1143.820312 1774.671875 C 1090.289062 1791.570312 1028.589844 1766 973.003906 1776.519531 C 951.007812 1780.671875 953.59375 1789.75 939.441406 1797.421875 C 931.808594 1801.558594 916.140625 1802.75 907.640625 1804.71875 C 842.117188 1819.890625 763.109375 1838.539062 706.230469 1876.699219 C 678.226562 1895.488281 664.820312 1911.460938 627.996094 1918.960938 C 551.414062 1934.558594 475.152344 1951.089844 400.046875 1970.480469 C 385.75 1974.171875 373.800781 1972.910156 358.863281 1971.351562 C 312.847656 1966.53125 268.066406 1960.21875 221.566406 1960.710938 C 174.683594 1961.21875 133.21875 1967.929688 89.082031 1983.808594 C 62.3125 1993.429688 37.703125 2009.328125 10.351562 2016.910156 C 8.3125 2017.46875 4.714844 2018.050781 0 2018.621094 Z M 0 2018.621094 "/>
</clipPath>
<clipPath id="clip-14">
<path clip-rule="nonzero" d="M 0 2018.621094 L 0 2195.140625 L 3468 2195.140625 L 3468 1105.238281 C 3447.671875 1111.960938 3429.429688 1126.410156 3414.808594 1142.78125 C 3406.53125 1152.058594 3406.941406 1153.011719 3398.128906 1157.578125 C 3392.078125 1160.71875 3380.230469 1161.890625 3373 1164.578125 C 3337.339844 1177.851562 3318.578125 1194.878906 3291.769531 1220.359375 C 3264.941406 1245.890625 3221.558594 1241.96875 3188.339844 1232.589844 C 3135.921875 1217.800781 3085.128906 1219.078125 3031.890625 1214.199219 C 2995.488281 1210.878906 2953.53125 1184.070312 2917.441406 1191.199219 C 2907.21875 1193.21875 2893.839844 1204.351562 2883.050781 1207.769531 C 2866.078125 1213.148438 2847.859375 1211.960938 2829.578125 1213.949219 C 2798.339844 1217.359375 2768.761719 1221.570312 2736.851562 1218.390625 C 2721.429688 1216.859375 2710.210938 1212.46875 2695.621094 1214.058594 C 2677.261719 1216.050781 2657.371094 1216.96875 2642.269531 1227.738281 C 2619.460938 1244.011719 2599.210938 1266.210938 2576.878906 1283.609375 C 2552.230469 1302.808594 2522.640625 1296.789062 2496.101562 1313.398438 C 2471.148438 1329.019531 2442.820312 1337.808594 2415.359375 1349.039062 C 2380.121094 1363.449219 2342.859375 1372.898438 2308.859375 1389.871094 C 2304.171875 1392.210938 2294.320312 1400.710938 2288.660156 1400.378906 C 2281.839844 1399.988281 2280.878906 1391.539062 2275.210938 1389.941406 C 2232.578125 1377.871094 2188.789062 1401.03125 2147.941406 1408.589844 C 2091.539062 1419.058594 2016.621094 1423.589844 1968.460938 1459.171875 C 1954.148438 1469.730469 1946.21875 1492.351562 1930.011719 1498.648438 C 1911.089844 1506 1879.261719 1496.539062 1859.050781 1496.460938 C 1811.269531 1496.269531 1766.011719 1476.410156 1717.808594 1483.339844 C 1687.199219 1487.738281 1649.320312 1493.449219 1628.660156 1518.191406 C 1612.019531 1538.128906 1601.558594 1551.351562 1578.148438 1563.910156 C 1521.949219 1594.089844 1454.980469 1602.890625 1407.640625 1647.960938 C 1356.398438 1696.769531 1293.601562 1713.878906 1226.890625 1739.871094 C 1199.140625 1750.679688 1172.101562 1765.738281 1143.820312 1774.671875 C 1090.289062 1791.570312 1028.589844 1766 973.003906 1776.519531 C 951.007812 1780.671875 953.59375 1789.75 939.441406 1797.421875 C 931.808594 1801.558594 916.140625 1802.75 907.640625 1804.71875 C 842.117188 1819.890625 763.109375 1838.539062 706.230469 1876.699219 C 678.226562 1895.488281 664.820312 1911.460938 627.996094 1918.960938 C 551.414062 1934.558594 475.152344 1951.089844 400.046875 1970.480469 C 385.75 1974.171875 373.800781 1972.910156 358.863281 1971.351562 C 312.847656 1966.53125 268.066406 1960.21875 221.566406 1960.710938 C 174.683594 1961.21875 133.21875 1967.929688 89.082031 1983.808594 C 62.3125 1993.429688 37.703125 2009.328125 10.351562 2016.910156 C 8.3125 2017.46875 4.714844 2018.050781 0 2018.621094 "/>
</clipPath>
<linearGradient id="linear-pattern-5" gradientUnits="userSpaceOnUse" x1="-0.0991628" y1="0" x2="1.472415" y2="0" gradientTransform="matrix(-250.703, 1128.17, 1128.17, 250.703, 2002.85, 897.05)">
<stop offset="0" stop-color="rgb(55.941772%, 35.237122%, 40.718079%)" stop-opacity="1"/>
<stop offset="0.0625" stop-color="rgb(55.941772%, 35.237122%, 40.718079%)" stop-opacity="1"/>
<stop offset="0.0703125" stop-color="rgb(55.761719%, 35.177612%, 40.660095%)" stop-opacity="1"/>
<stop offset="0.078125" stop-color="rgb(55.386353%, 35.050964%, 40.538025%)" stop-opacity="1"/>
<stop offset="0.0859375" stop-color="rgb(55.030823%, 34.921265%, 40.406799%)" stop-opacity="1"/>
<stop offset="0.09375" stop-color="rgb(54.777527%, 34.797668%, 40.26947%)" stop-opacity="1"/>
<stop offset="0.101562" stop-color="rgb(54.489136%, 34.671021%, 40.133667%)" stop-opacity="1"/>
<stop offset="0.109375" stop-color="rgb(54.170227%, 34.585571%, 40.058899%)" stop-opacity="1"/>
<stop offset="0.117188" stop-color="rgb(53.900146%, 34.487915%, 40.010071%)" stop-opacity="1"/>
<stop offset="0.125" stop-color="rgb(53.565979%, 34.266663%, 39.881897%)" stop-opacity="1"/>
<stop offset="0.132812" stop-color="rgb(53.184509%, 34.057617%, 39.729309%)" stop-opacity="1"/>
<stop offset="0.140625" stop-color="rgb(52.893066%, 33.932495%, 39.593506%)" stop-opacity="1"/>
<stop offset="0.148438" stop-color="rgb(52.694702%, 33.843994%, 39.497375%)" stop-opacity="1"/>
<stop offset="0.15625" stop-color="rgb(52.471924%, 33.79364%, 39.459229%)" stop-opacity="1"/>
<stop offset="0.164063" stop-color="rgb(52.153015%, 33.705139%, 39.381409%)" stop-opacity="1"/>
<stop offset="0.171875" stop-color="rgb(51.777649%, 33.482361%, 39.222717%)" stop-opacity="1"/>
<stop offset="0.179688" stop-color="rgb(51.403809%, 33.235168%, 39.056396%)" stop-opacity="1"/>
<stop offset="0.1875" stop-color="rgb(51.106262%, 33.105469%, 38.945007%)" stop-opacity="1"/>
<stop offset="0.203125" stop-color="rgb(50.788879%, 32.894897%, 38.801575%)" stop-opacity="1"/>
<stop offset="0.210938" stop-color="rgb(50.398254%, 32.643127%, 38.627625%)" stop-opacity="1"/>
<stop offset="0.21875" stop-color="rgb(50.071716%, 32.530212%, 38.531494%)" stop-opacity="1"/>
<stop offset="0.226563" stop-color="rgb(49.810791%, 32.478333%, 38.48114%)" stop-opacity="1"/>
<stop offset="0.234375" stop-color="rgb(49.507141%, 32.398987%, 38.322449%)" stop-opacity="1"/>
<stop offset="0.242187" stop-color="rgb(49.137878%, 32.273865%, 38.122559%)" stop-opacity="1"/>
<stop offset="0.25" stop-color="rgb(48.825073%, 32.185364%, 38.035583%)" stop-opacity="1"/>
<stop offset="0.257812" stop-color="rgb(48.5672%, 32.133484%, 38.000488%)" stop-opacity="1"/>
<stop offset="0.265625" stop-color="rgb(48.262024%, 32.041931%, 37.916565%)" stop-opacity="1"/>
<stop offset="0.273438" stop-color="rgb(47.988892%, 31.886292%, 37.762451%)" stop-opacity="1"/>
<stop offset="0.28125" stop-color="rgb(47.732544%, 31.7276%, 37.60376%)" stop-opacity="1"/>
<stop offset="0.289062" stop-color="rgb(47.389221%, 31.594849%, 37.471008%)" stop-opacity="1"/>
<stop offset="0.296875" stop-color="rgb(47.044373%, 31.478882%, 37.356567%)" stop-opacity="1"/>
<stop offset="0.304688" stop-color="rgb(46.781921%, 31.422424%, 37.312317%)" stop-opacity="1"/>
<stop offset="0.308594" stop-color="rgb(46.424866%, 31.355286%, 37.269592%)" stop-opacity="1"/>
<stop offset="0.3125" stop-color="rgb(46.165466%, 31.292725%, 37.219238%)" stop-opacity="1"/>
<stop offset="0.316406" stop-color="rgb(45.948792%, 31.230164%, 37.120056%)" stop-opacity="1"/>
<stop offset="0.320312" stop-color="rgb(45.732117%, 31.166077%, 37.017822%)" stop-opacity="1"/>
<stop offset="0.328125" stop-color="rgb(45.579529%, 31.123352%, 36.932373%)" stop-opacity="1"/>
<stop offset="0.335938" stop-color="rgb(45.329285%, 31.072998%, 36.851501%)" stop-opacity="1"/>
<stop offset="0.34375" stop-color="rgb(45.059204%, 30.917358%, 36.764526%)" stop-opacity="1"/>
<stop offset="0.351562" stop-color="rgb(44.711304%, 30.686951%, 36.601257%)" stop-opacity="1"/>
<stop offset="0.359375" stop-color="rgb(44.361877%, 30.53894%, 36.465454%)" stop-opacity="1"/>
<stop offset="0.367188" stop-color="rgb(44.023132%, 30.421448%, 36.347961%)" stop-opacity="1"/>
<stop offset="0.375" stop-color="rgb(43.762207%, 30.361938%, 36.300659%)" stop-opacity="1"/>
<stop offset="0.382813" stop-color="rgb(43.505859%, 30.303955%, 36.254883%)" stop-opacity="1"/>
<stop offset="0.390625" stop-color="rgb(43.170166%, 30.187988%, 36.13739%)" stop-opacity="1"/>
<stop offset="0.398438" stop-color="rgb(42.799377%, 30.062866%, 35.995483%)" stop-opacity="1"/>
<stop offset="0.402344" stop-color="rgb(42.337036%, 29.934692%, 35.797119%)" stop-opacity="1"/>
<stop offset="0.40625" stop-color="rgb(42.071533%, 29.870605%, 35.678101%)" stop-opacity="1"/>
<stop offset="0.414062" stop-color="rgb(41.972351%, 29.864502%, 35.681152%)" stop-opacity="1"/>
<stop offset="0.421875" stop-color="rgb(41.725159%, 29.812622%, 35.643005%)" stop-opacity="1"/>
<stop offset="0.429687" stop-color="rgb(41.412354%, 29.676819%, 35.528564%)" stop-opacity="1"/>
<stop offset="0.4375" stop-color="rgb(41.078186%, 29.455566%, 35.371399%)" stop-opacity="1"/>
<stop offset="0.441406" stop-color="rgb(40.724182%, 29.316711%, 35.302734%)" stop-opacity="1"/>
<stop offset="0.445313" stop-color="rgb(40.538025%, 29.307556%, 35.316467%)" stop-opacity="1"/>
<stop offset="0.453125" stop-color="rgb(40.367126%, 29.258728%, 35.220337%)" stop-opacity="1"/>
<stop offset="0.46875" stop-color="rgb(40.058899%, 29.148865%, 35.044861%)" stop-opacity="1"/>
<stop offset="0.472656" stop-color="rgb(39.668274%, 28.945923%, 34.881592%)" stop-opacity="1"/>
<stop offset="0.476562" stop-color="rgb(39.414978%, 28.80249%, 34.797668%)" stop-opacity="1"/>
<stop offset="0.484375" stop-color="rgb(39.242554%, 28.736877%, 34.677124%)" stop-opacity="1"/>
<stop offset="0.492187" stop-color="rgb(38.955688%, 28.599548%, 34.498596%)" stop-opacity="1"/>
<stop offset="0.5" stop-color="rgb(38.728333%, 28.453064%, 34.405518%)" stop-opacity="1"/>
<stop offset="0.507812" stop-color="rgb(38.452148%, 28.318787%, 34.30481%)" stop-opacity="1"/>
<stop offset="0.515625" stop-color="rgb(38.12561%, 28.199768%, 34.117126%)" stop-opacity="1"/>
<stop offset="0.519531" stop-color="rgb(37.785339%, 28.120422%, 33.973694%)" stop-opacity="1"/>
<stop offset="0.523438" stop-color="rgb(37.606812%, 28.09906%, 33.953857%)" stop-opacity="1"/>
<stop offset="0.527344" stop-color="rgb(37.437439%, 28.033447%, 33.921814%)" stop-opacity="1"/>
<stop offset="0.53125" stop-color="rgb(37.268066%, 27.967834%, 33.888245%)" stop-opacity="1"/>
<stop offset="0.539062" stop-color="rgb(37.112427%, 27.845764%, 33.802795%)" stop-opacity="1"/>
<stop offset="0.546875" stop-color="rgb(36.795044%, 27.662659%, 33.653259%)" stop-opacity="1"/>
<stop offset="0.554688" stop-color="rgb(36.535645%, 27.590942%, 33.587646%)" stop-opacity="1"/>
<stop offset="0.5625" stop-color="rgb(36.309814%, 27.502441%, 33.503723%)" stop-opacity="1"/>
<stop offset="0.570312" stop-color="rgb(36.048889%, 27.331543%, 33.319092%)" stop-opacity="1"/>
<stop offset="0.578125" stop-color="rgb(35.826111%, 27.232361%, 33.222961%)" stop-opacity="1"/>
<stop offset="0.585938" stop-color="rgb(35.578918%, 27.1698%, 33.16803%)" stop-opacity="1"/>
<stop offset="0.589844" stop-color="rgb(35.25238%, 27.037048%, 33.076477%)" stop-opacity="1"/>
<stop offset="0.59375" stop-color="rgb(35.08606%, 26.963806%, 33.049011%)" stop-opacity="1"/>
<stop offset="0.597656" stop-color="rgb(34.919739%, 26.89209%, 33.016968%)" stop-opacity="1"/>
<stop offset="0.601563" stop-color="rgb(34.753418%, 26.821899%, 32.983398%)" stop-opacity="1"/>
<stop offset="0.609375" stop-color="rgb(34.605408%, 26.77002%, 32.928467%)" stop-opacity="1"/>
<stop offset="0.617188" stop-color="rgb(34.368896%, 26.713562%, 32.879639%)" stop-opacity="1"/>
<stop offset="0.621094" stop-color="rgb(34.068298%, 26.599121%, 32.820129%)" stop-opacity="1"/>
<stop offset="0.625" stop-color="rgb(33.859253%, 26.489258%, 32.752991%)" stop-opacity="1"/>
<stop offset="0.628906" stop-color="rgb(33.702087%, 26.425171%, 32.717896%)" stop-opacity="1"/>
<stop offset="0.632812" stop-color="rgb(33.543396%, 26.361084%, 32.6828%)" stop-opacity="1"/>
<stop offset="0.640625" stop-color="rgb(33.441162%, 26.329041%, 32.653809%)" stop-opacity="1"/>
<stop offset="0.648438" stop-color="rgb(33.197021%, 26.171875%, 32.481384%)" stop-opacity="1"/>
<stop offset="0.65625" stop-color="rgb(32.96051%, 26.036072%, 32.3349%)" stop-opacity="1"/>
<stop offset="0.664063" stop-color="rgb(32.739258%, 25.985718%, 32.295227%)" stop-opacity="1"/>
<stop offset="0.667969" stop-color="rgb(32.429504%, 25.865173%, 32.18689%)" stop-opacity="1"/>
<stop offset="0.671875" stop-color="rgb(32.249451%, 25.78125%, 32.116699%)" stop-opacity="1"/>
<stop offset="0.675781" stop-color="rgb(32.028198%, 25.660706%, 32.040405%)" stop-opacity="1"/>
<stop offset="0.679688" stop-color="rgb(31.806946%, 25.538635%, 31.962585%)" stop-opacity="1"/>
<stop offset="0.6875" stop-color="rgb(31.719971%, 25.535583%, 31.970215%)" stop-opacity="1"/>
<stop offset="0.695313" stop-color="rgb(31.498718%, 25.489807%, 31.889343%)" stop-opacity="1"/>
<stop offset="0.703125" stop-color="rgb(31.286621%, 25.418091%, 31.739807%)" stop-opacity="1"/>
<stop offset="0.71875" stop-color="rgb(31.208801%, 25.389099%, 31.678772%)" stop-opacity="1"/>
<stop offset="0.75" stop-color="rgb(31.208801%, 25.389099%, 31.678772%)" stop-opacity="1"/>
<stop offset="1" stop-color="rgb(31.208801%, 25.389099%, 31.678772%)" stop-opacity="1"/>
</linearGradient>
<clipPath id="clip-15">
<path clip-rule="nonzero" d="M 0 1558 L 3468 1558 L 3468 2400 L 0 2400 Z M 0 1558 "/>
</clipPath>
<clipPath id="clip-16">
<path clip-rule="nonzero" d="M 3468 1932.121094 L 3468 2400 L 0 2400 L 0 1761.671875 C 43.355469 1749.160156 93.15625 1745.320312 128.398438 1730.359375 C 152.777344 1720.019531 168.355469 1694.171875 192.414062 1683.820312 C 227.828125 1668.589844 286.292969 1694.578125 313.859375 1709.539062 C 320.972656 1697.761719 354.652344 1684.949219 370.75 1678.019531 C 398.902344 1665.929688 428.890625 1669.351562 459.042969 1667.199219 C 524.234375 1662.53125 583.949219 1639.101562 648.964844 1659.140625 C 667.953125 1628.808594 698.570312 1577.078125 731.453125 1561.398438 C 761.175781 1547.21875 788.128906 1587.851562 815.535156 1594.28125 C 852.039062 1602.851562 889.574219 1590.949219 925.507812 1606.839844 C 943.53125 1614.808594 958.042969 1625.789062 979.105469 1623.71875 C 1015.710938 1620.109375 1069.78125 1603.230469 1104.730469 1623.050781 C 1121.191406 1632.390625 1135.851562 1643.941406 1154.328125 1652.441406 C 1183.988281 1666.078125 1210.128906 1670.539062 1243.121094 1672.25 C 1274.429688 1673.871094 1295.921875 1678.890625 1318.960938 1699.050781 C 1329.109375 1707.921875 1337.140625 1716.269531 1349.28125 1723.28125 C 1386.308594 1744.660156 1427.300781 1743.738281 1471.179688 1747.28125 C 1510.890625 1750.488281 1553.621094 1761.898438 1591.210938 1774.761719 C 1633.019531 1789.070312 1647.671875 1773.351562 1692.171875 1760.519531 C 1727.691406 1750.269531 1767.539062 1746.28125 1800.398438 1730.449219 C 1838.421875 1712.128906 1876.050781 1696.269531 1915.46875 1683.328125 C 1929.808594 1678.609375 1947.230469 1673.128906 1959.179688 1665.050781 C 1976.089844 1653.589844 1974.628906 1643.589844 1995.640625 1647.980469 C 2019.089844 1652.871094 2021.300781 1661.519531 2028.070312 1679.691406 C 2037.511719 1705.109375 2058.058594 1715.46875 2081.050781 1728.28125 C 2114.398438 1746.839844 2138.378906 1783.46875 2170.828125 1800.449219 C 2195.488281 1813.339844 2236.589844 1787.320312 2259.691406 1775.238281 C 2273.78125 1767.878906 2288.441406 1753.230469 2305.410156 1753.328125 C 2322.828125 1753.441406 2345.441406 1770.429688 2361.660156 1777.429688 C 2400 1793.988281 2436.710938 1808.769531 2478.53125 1815.601562 C 2499.460938 1819.019531 2512 1821.359375 2529.648438 1832.871094 C 2546.238281 1843.691406 2566.21875 1848.769531 2580.789062 1862.160156 C 2604.328125 1883.800781 2614.199219 1895.519531 2647.871094 1897.730469 C 2682.738281 1900.011719 2713.589844 1903.308594 2747.109375 1913.238281 C 2750.921875 1914.378906 2755.96875 1921.339844 2759.609375 1921.210938 C 2775.148438 1920.609375 2794.160156 1902.429688 2808.210938 1895.589844 C 2854.550781 1872.980469 2899.769531 1876.671875 2946.019531 1861.738281 C 2985.929688 1848.839844 3023.570312 1830.96875 3062.21875 1816.128906 C 3097.238281 1802.691406 3117.25 1823.070312 3147.910156 1841.230469 C 3165.769531 1851.820312 3171.058594 1863.921875 3186.328125 1877.210938 C 3201.238281 1890.191406 3220.289062 1899.878906 3238.929688 1906.191406 C 3250.628906 1910.140625 3265.660156 1909.359375 3276.570312 1914.429688 C 3281.070312 1916.519531 3288.988281 1926.261719 3290.121094 1926.691406 C 3318.730469 1937.339844 3355.5 1922.429688 3386.78125 1931.070312 C 3415.410156 1939 3440.730469 1935.429688 3468 1932.121094 Z M 3468 1932.121094 "/>
</clipPath>
<clipPath id="clip-17">
<path clip-rule="nonzero" d="M 3468 1932.121094 L 3468 2400 L 0 2400 L 0 1761.671875 C 43.355469 1749.160156 93.15625 1745.320312 128.398438 1730.359375 C 152.777344 1720.019531 168.355469 1694.171875 192.414062 1683.820312 C 227.828125 1668.589844 286.292969 1694.578125 313.859375 1709.539062 C 320.972656 1697.761719 354.652344 1684.949219 370.75 1678.019531 C 398.902344 1665.929688 428.890625 1669.351562 459.042969 1667.199219 C 524.234375 1662.53125 583.949219 1639.101562 648.964844 1659.140625 C 667.953125 1628.808594 698.570312 1577.078125 731.453125 1561.398438 C 761.175781 1547.21875 788.128906 1587.851562 815.535156 1594.28125 C 852.039062 1602.851562 889.574219 1590.949219 925.507812 1606.839844 C 943.53125 1614.808594 958.042969 1625.789062 979.105469 1623.71875 C 1015.710938 1620.109375 1069.78125 1603.230469 1104.730469 1623.050781 C 1121.191406 1632.390625 1135.851562 1643.941406 1154.328125 1652.441406 C 1183.988281 1666.078125 1210.128906 1670.539062 1243.121094 1672.25 C 1274.429688 1673.871094 1295.921875 1678.890625 1318.960938 1699.050781 C 1329.109375 1707.921875 1337.140625 1716.269531 1349.28125 1723.28125 C 1386.308594 1744.660156 1427.300781 1743.738281 1471.179688 1747.28125 C 1510.890625 1750.488281 1553.621094 1761.898438 1591.210938 1774.761719 C 1633.019531 1789.070312 1647.671875 1773.351562 1692.171875 1760.519531 C 1727.691406 1750.269531 1767.539062 1746.28125 1800.398438 1730.449219 C 1838.421875 1712.128906 1876.050781 1696.269531 1915.46875 1683.328125 C 1929.808594 1678.609375 1947.230469 1673.128906 1959.179688 1665.050781 C 1976.089844 1653.589844 1974.628906 1643.589844 1995.640625 1647.980469 C 2019.089844 1652.871094 2021.300781 1661.519531 2028.070312 1679.691406 C 2037.511719 1705.109375 2058.058594 1715.46875 2081.050781 1728.28125 C 2114.398438 1746.839844 2138.378906 1783.46875 2170.828125 1800.449219 C 2195.488281 1813.339844 2236.589844 1787.320312 2259.691406 1775.238281 C 2273.78125 1767.878906 2288.441406 1753.230469 2305.410156 1753.328125 C 2322.828125 1753.441406 2345.441406 1770.429688 2361.660156 1777.429688 C 2400 1793.988281 2436.710938 1808.769531 2478.53125 1815.601562 C 2499.460938 1819.019531 2512 1821.359375 2529.648438 1832.871094 C 2546.238281 1843.691406 2566.21875 1848.769531 2580.789062 1862.160156 C 2604.328125 1883.800781 2614.199219 1895.519531 2647.871094 1897.730469 C 2682.738281 1900.011719 2713.589844 1903.308594 2747.109375 1913.238281 C 2750.921875 1914.378906 2755.96875 1921.339844 2759.609375 1921.210938 C 2775.148438 1920.609375 2794.160156 1902.429688 2808.210938 1895.589844 C 2854.550781 1872.980469 2899.769531 1876.671875 2946.019531 1861.738281 C 2985.929688 1848.839844 3023.570312 1830.96875 3062.21875 1816.128906 C 3097.238281 1802.691406 3117.25 1823.070312 3147.910156 1841.230469 C 3165.769531 1851.820312 3171.058594 1863.921875 3186.328125 1877.210938 C 3201.238281 1890.191406 3220.289062 1899.878906 3238.929688 1906.191406 C 3250.628906 1910.140625 3265.660156 1909.359375 3276.570312 1914.429688 C 3281.070312 1916.519531 3288.988281 1926.261719 3290.121094 1926.691406 C 3318.730469 1937.339844 3355.5 1922.429688 3386.78125 1931.070312 C 3415.410156 1939 3440.730469 1935.429688 3468 1932.121094 "/>
</clipPath>
<linearGradient id="linear-pattern-6" gradientUnits="userSpaceOnUse" x1="0.143044" y1="0" x2="0.989753" y2="0" gradientTransform="matrix(0, 1007.17, -1007.17, 0, 1734, 1403.15)">
<stop offset="0" stop-color="rgb(50.985718%, 33.061218%, 38.902283%)" stop-opacity="1"/>
<stop offset="0.0078125" stop-color="rgb(50.840759%, 32.946777%, 38.812256%)" stop-opacity="1"/>
<stop offset="0.015625" stop-color="rgb(50.550842%, 32.71637%, 38.635254%)" stop-opacity="1"/>
<stop offset="0.0234375" stop-color="rgb(50.254822%, 32.537842%, 38.470459%)" stop-opacity="1"/>
<stop offset="0.03125" stop-color="rgb(49.951172%, 32.437134%, 38.328552%)" stop-opacity="1"/>
<stop offset="0.0390625" stop-color="rgb(49.653625%, 32.371521%, 38.21106%)" stop-opacity="1"/>
<stop offset="0.046875" stop-color="rgb(49.403381%, 32.336426%, 38.166809%)" stop-opacity="1"/>
<stop offset="0.0546875" stop-color="rgb(49.188232%, 32.324219%, 38.183594%)" stop-opacity="1"/>
<stop offset="0.0625" stop-color="rgb(48.979187%, 32.289124%, 38.163757%)" stop-opacity="1"/>
<stop offset="0.078125" stop-color="rgb(48.681641%, 32.191467%, 38.050842%)" stop-opacity="1"/>
<stop offset="0.09375" stop-color="rgb(48.286438%, 32.05719%, 37.826538%)" stop-opacity="1"/>
<stop offset="0.101563" stop-color="rgb(47.940063%, 31.906128%, 37.640381%)" stop-opacity="1"/>
<stop offset="0.109375" stop-color="rgb(47.640991%, 31.738281%, 37.548828%)" stop-opacity="1"/>
<stop offset="0.117187" stop-color="rgb(47.343445%, 31.600952%, 37.466431%)" stop-opacity="1"/>
<stop offset="0.125" stop-color="rgb(47.042847%, 31.509399%, 37.399292%)" stop-opacity="1"/>
<stop offset="0.132813" stop-color="rgb(46.754456%, 31.436157%, 37.336731%)" stop-opacity="1"/>
<stop offset="0.140625" stop-color="rgb(46.520996%, 31.365967%, 37.271118%)" stop-opacity="1"/>
<stop offset="0.148438" stop-color="rgb(46.328735%, 31.298828%, 37.202454%)" stop-opacity="1"/>
<stop offset="0.15625" stop-color="rgb(46.092224%, 31.228638%, 37.107849%)" stop-opacity="1"/>
<stop offset="0.164062" stop-color="rgb(45.803833%, 31.158447%, 36.981201%)" stop-opacity="1"/>
<stop offset="0.171875" stop-color="rgb(45.530701%, 31.088257%, 36.863708%)" stop-opacity="1"/>
<stop offset="0.1875" stop-color="rgb(45.213318%, 30.984497%, 36.741638%)" stop-opacity="1"/>
<stop offset="0.195312" stop-color="rgb(44.876099%, 30.833435%, 36.628723%)" stop-opacity="1"/>
<stop offset="0.203125" stop-color="rgb(44.587708%, 30.671692%, 36.53717%)" stop-opacity="1"/>
<stop offset="0.210938" stop-color="rgb(44.297791%, 30.537415%, 36.454773%)" stop-opacity="1"/>
<stop offset="0.21875" stop-color="rgb(44.006348%, 30.447388%, 36.387634%)" stop-opacity="1"/>
<stop offset="0.226562" stop-color="rgb(43.716431%, 30.368042%, 36.308289%)" stop-opacity="1"/>
<stop offset="0.234375" stop-color="rgb(43.438721%, 30.262756%, 36.154175%)" stop-opacity="1"/>
<stop offset="0.242188" stop-color="rgb(43.16864%, 30.137634%, 35.940552%)" stop-opacity="1"/>
<stop offset="0.25" stop-color="rgb(42.892456%, 30.033875%, 35.791016%)" stop-opacity="1"/>
<stop offset="0.257812" stop-color="rgb(42.605591%, 29.956055%, 35.717773%)" stop-opacity="1"/>
<stop offset="0.265625" stop-color="rgb(42.318726%, 29.884338%, 35.656738%)" stop-opacity="1"/>
<stop offset="0.273438" stop-color="rgb(42.03186%, 29.812622%, 35.595703%)" stop-opacity="1"/>
<stop offset="0.28125" stop-color="rgb(41.746521%, 29.73938%, 35.533142%)" stop-opacity="1"/>
<stop offset="0.289062" stop-color="rgb(41.461182%, 29.666138%, 35.472107%)" stop-opacity="1"/>
<stop offset="0.296875" stop-color="rgb(41.175842%, 29.594421%, 35.411072%)" stop-opacity="1"/>
<stop offset="0.304687" stop-color="rgb(40.895081%, 29.495239%, 35.340881%)" stop-opacity="1"/>
<stop offset="0.3125" stop-color="rgb(40.617371%, 29.354858%, 35.255432%)" stop-opacity="1"/>
<stop offset="0.320312" stop-color="rgb(40.362549%, 29.216003%, 35.168457%)" stop-opacity="1"/>
<stop offset="0.328125" stop-color="rgb(40.196228%, 29.154968%, 35.096741%)" stop-opacity="1"/>
<stop offset="0.335938" stop-color="rgb(40.097046%, 29.151917%, 35.040283%)" stop-opacity="1"/>
<stop offset="0.34375" stop-color="rgb(39.924622%, 29.086304%, 34.941101%)" stop-opacity="1"/>
<stop offset="0.351562" stop-color="rgb(39.665222%, 28.947449%, 34.794617%)" stop-opacity="1"/>
<stop offset="0.359375" stop-color="rgb(39.413452%, 28.813171%, 34.657288%)" stop-opacity="1"/>
<stop offset="0.375" stop-color="rgb(39.117432%, 28.689575%, 34.53064%)" stop-opacity="1"/>
<stop offset="0.382812" stop-color="rgb(38.803101%, 28.546143%, 34.416199%)" stop-opacity="1"/>
<stop offset="0.390625" stop-color="rgb(38.53302%, 28.393555%, 34.327698%)" stop-opacity="1"/>
<stop offset="0.398438" stop-color="rgb(38.262939%, 28.268433%, 34.22699%)" stop-opacity="1"/>
<stop offset="0.40625" stop-color="rgb(37.989807%, 28.186035%, 34.107971%)" stop-opacity="1"/>
<stop offset="0.414062" stop-color="rgb(37.728882%, 28.109741%, 33.987427%)" stop-opacity="1"/>
<stop offset="0.421875" stop-color="rgb(37.521362%, 27.993774%, 33.880615%)" stop-opacity="1"/>
<stop offset="0.429687" stop-color="rgb(37.353516%, 27.848816%, 33.784485%)" stop-opacity="1"/>
<stop offset="0.4375" stop-color="rgb(37.142944%, 27.735901%, 33.702087%)" stop-opacity="1"/>
<stop offset="0.445313" stop-color="rgb(36.878967%, 27.659607%, 33.638%)" stop-opacity="1"/>
<stop offset="0.453125" stop-color="rgb(36.608887%, 27.590942%, 33.564758%)" stop-opacity="1"/>
<stop offset="0.460937" stop-color="rgb(36.340332%, 27.523804%, 33.459473%)" stop-opacity="1"/>
<stop offset="0.46875" stop-color="rgb(36.074829%, 27.456665%, 33.337402%)" stop-opacity="1"/>
<stop offset="0.484375" stop-color="rgb(35.778809%, 27.279663%, 33.180237%)" stop-opacity="1"/>
<stop offset="0.492188" stop-color="rgb(35.501099%, 27.090454%, 33.047485%)" stop-opacity="1"/>
<stop offset="0.5" stop-color="rgb(35.253906%, 27.008057%, 32.980347%)" stop-opacity="1"/>
<stop offset="0.507812" stop-color="rgb(34.997559%, 26.937866%, 32.925415%)" stop-opacity="1"/>
<stop offset="0.515625" stop-color="rgb(34.78241%, 26.858521%, 32.893372%)" stop-opacity="1"/>
<stop offset="0.523438" stop-color="rgb(34.597778%, 26.773071%, 32.879639%)" stop-opacity="1"/>
<stop offset="0.53125" stop-color="rgb(34.384155%, 26.664734%, 32.809448%)" stop-opacity="1"/>
<stop offset="0.539063" stop-color="rgb(34.135437%, 26.528931%, 32.672119%)" stop-opacity="1"/>
<stop offset="0.546875" stop-color="rgb(33.880615%, 26.403809%, 32.543945%)" stop-opacity="1"/>
<stop offset="0.554688" stop-color="rgb(33.622742%, 26.316833%, 32.458496%)" stop-opacity="1"/>
<stop offset="0.5625" stop-color="rgb(33.360291%, 26.249695%, 32.397461%)" stop-opacity="1"/>
<stop offset="0.570313" stop-color="rgb(33.105469%, 26.144409%, 32.322693%)" stop-opacity="1"/>
<stop offset="0.578125" stop-color="rgb(32.855225%, 26.002502%, 32.234192%)" stop-opacity="1"/>
<stop offset="0.59375" stop-color="rgb(32.550049%, 25.856018%, 32.118225%)" stop-opacity="1"/>
<stop offset="0.601562" stop-color="rgb(32.287598%, 25.747681%, 32.019043%)" stop-opacity="1"/>
<stop offset="0.609375" stop-color="rgb(32.115173%, 25.672913%, 31.985474%)" stop-opacity="1"/>
<stop offset="0.617187" stop-color="rgb(31.93512%, 25.593567%, 31.971741%)" stop-opacity="1"/>
<stop offset="0.625" stop-color="rgb(31.724548%, 25.520325%, 31.913757%)" stop-opacity="1"/>
<stop offset="0.632812" stop-color="rgb(31.477356%, 25.456238%, 31.80542%)" stop-opacity="1"/>
<stop offset="0.640625" stop-color="rgb(31.245422%, 25.376892%, 31.690979%)" stop-opacity="1"/>
<stop offset="0.65625" stop-color="rgb(30.989075%, 25.198364%, 31.541443%)" stop-opacity="1"/>
<stop offset="0.664062" stop-color="rgb(30.709839%, 25.035095%, 31.387329%)" stop-opacity="1"/>
<stop offset="0.671875" stop-color="rgb(30.458069%, 24.972534%, 31.271362%)" stop-opacity="1"/>
<stop offset="0.679688" stop-color="rgb(30.210876%, 24.888611%, 31.163025%)" stop-opacity="1"/>
<stop offset="0.6875" stop-color="rgb(29.969788%, 24.766541%, 31.071472%)" stop-opacity="1"/>
<stop offset="0.695312" stop-color="rgb(29.728699%, 24.632263%, 30.976868%)" stop-opacity="1"/>
<stop offset="0.703125" stop-color="rgb(29.490662%, 24.499512%, 30.854797%)" stop-opacity="1"/>
<stop offset="0.710937" stop-color="rgb(29.252625%, 24.368286%, 30.712891%)" stop-opacity="1"/>
<stop offset="0.71875" stop-color="rgb(29.013062%, 24.267578%, 30.606079%)" stop-opacity="1"/>
<stop offset="0.726562" stop-color="rgb(28.767395%, 24.198914%, 30.53894%)" stop-opacity="1"/>
<stop offset="0.734375" stop-color="rgb(28.544617%, 24.121094%, 30.470276%)" stop-opacity="1"/>
<stop offset="0.75" stop-color="rgb(28.297424%, 23.948669%, 30.337524%)" stop-opacity="1"/>
<stop offset="0.757812" stop-color="rgb(28.030396%, 23.791504%, 30.186462%)" stop-opacity="1"/>
<stop offset="0.765625" stop-color="rgb(27.789307%, 23.731995%, 30.073547%)" stop-opacity="1"/>
<stop offset="0.773437" stop-color="rgb(27.55127%, 23.649597%, 29.968262%)" stop-opacity="1"/>
<stop offset="0.78125" stop-color="rgb(27.31781%, 23.53363%, 29.876709%)" stop-opacity="1"/>
<stop offset="0.789062" stop-color="rgb(27.087402%, 23.403931%, 29.789734%)" stop-opacity="1"/>
<stop offset="0.796875" stop-color="rgb(26.858521%, 23.275757%, 29.702759%)" stop-opacity="1"/>
<stop offset="0.804688" stop-color="rgb(26.629639%, 23.149109%, 29.61731%)" stop-opacity="1"/>
<stop offset="0.8125" stop-color="rgb(26.396179%, 23.049927%, 29.541016%)" stop-opacity="1"/>
<stop offset="0.820312" stop-color="rgb(26.161194%, 22.984314%, 29.478455%)" stop-opacity="1"/>
<stop offset="0.828125" stop-color="rgb(25.959778%, 22.921753%, 29.428101%)" stop-opacity="1"/>
<stop offset="0.84375" stop-color="rgb(25.796509%, 22.821045%, 29.38385%)" stop-opacity="1"/>
<stop offset="0.851563" stop-color="rgb(25.602722%, 22.691345%, 29.292297%)" stop-opacity="1"/>
<stop offset="0.859375" stop-color="rgb(25.378418%, 22.569275%, 29.154968%)" stop-opacity="1"/>
<stop offset="0.867187" stop-color="rgb(25.15564%, 22.445679%, 29.034424%)" stop-opacity="1"/>
<stop offset="0.875" stop-color="rgb(24.934387%, 22.323608%, 28.938293%)" stop-opacity="1"/>
<stop offset="0.882812" stop-color="rgb(24.711609%, 22.207642%, 28.849792%)" stop-opacity="1"/>
<stop offset="0.890625" stop-color="rgb(24.484253%, 22.12677%, 28.747559%)" stop-opacity="1"/>
<stop offset="0.898437" stop-color="rgb(24.253845%, 22.070312%, 28.637695%)" stop-opacity="1"/>
<stop offset="0.90625" stop-color="rgb(24.024963%, 22.012329%, 28.549194%)" stop-opacity="1"/>
<stop offset="0.914062" stop-color="rgb(23.796082%, 21.954346%, 28.485107%)" stop-opacity="1"/>
<stop offset="0.921875" stop-color="rgb(23.570251%, 21.882629%, 28.407288%)" stop-opacity="1"/>
<stop offset="0.929688" stop-color="rgb(23.352051%, 21.780396%, 28.294373%)" stop-opacity="1"/>
<stop offset="0.9375" stop-color="rgb(23.135376%, 21.661377%, 28.160095%)" stop-opacity="1"/>
<stop offset="0.945312" stop-color="rgb(22.921753%, 21.542358%, 28.050232%)" stop-opacity="1"/>
<stop offset="0.953125" stop-color="rgb(22.706604%, 21.424866%, 27.966309%)" stop-opacity="1"/>
<stop offset="0.96875" stop-color="rgb(22.457886%, 21.24939%, 27.792358%)" stop-opacity="1"/>
<stop offset="0.976563" stop-color="rgb(22.241211%, 21.084595%, 27.600098%)" stop-opacity="1"/>
<stop offset="0.984375" stop-color="rgb(22.053528%, 21.006775%, 27.511597%)" stop-opacity="1"/>
<stop offset="0.992188" stop-color="rgb(21.832275%, 20.950317%, 27.452087%)" stop-opacity="1"/>
<stop offset="1" stop-color="rgb(21.615601%, 20.86792%, 27.381897%)" stop-opacity="1"/>
</linearGradient>
</defs>
<path fill-rule="nonzero" fill="url(#linear-pattern-0)" d="M 0.421875 2438.316406 L 3494.515625 2399.707031 L 3467.578125 -38.316406 L -26.515625 0.292969 Z M 0.421875 2438.316406 "/>
<g clip-path="url(#clip-0)">
<g clip-path="url(#clip-1)">
<g clip-path="url(#clip-2)">
<path fill-rule="nonzero" fill="url(#linear-pattern-1)" d="M -36.585938 612.210938 L 3465.898438 525.996094 L 3504.585938 2097.628906 L 2.101562 2183.84375 Z M -36.585938 612.210938 "/>
</g>
</g>
</g>
<g clip-path="url(#clip-3)">
<g clip-path="url(#clip-4)">
<g clip-path="url(#clip-5)">
<path fill-rule="nonzero" fill="url(#linear-pattern-2)" d="M 4.625 782.621094 L 3519.0625 911.054688 L 3463.375 2434.898438 L -51.0625 2306.464844 Z M 4.625 782.621094 "/>
</g>
</g>
</g>
<g clip-path="url(#clip-6)">
<g clip-path="url(#clip-7)">
<g clip-path="url(#clip-8)">
<path fill-rule="nonzero" fill="url(#linear-pattern-3)" d="M 0 1014.191406 L 0 2195.601562 L 3468 2195.601562 L 3468 1014.191406 Z M 0 1014.191406 "/>
</g>
</g>
</g>
<g clip-path="url(#clip-9)">
<g clip-path="url(#clip-10)">
<g clip-path="url(#clip-11)">
<path fill-rule="nonzero" fill="url(#linear-pattern-4)" d="M 2587.527344 -324.386719 L 3904.101562 1932.609375 L 880.472656 3696.386719 L -436.101562 1439.390625 Z M 2587.527344 -324.386719 "/>
</g>
</g>
</g>
<g clip-path="url(#clip-12)">
<g clip-path="url(#clip-13)">
<g clip-path="url(#clip-14)">
<path fill-rule="nonzero" fill="url(#linear-pattern-5)" d="M 163.199219 370.84375 L 3698.800781 1156.527344 L 3304.800781 2929.535156 L -230.800781 2143.851562 Z M 163.199219 370.84375 "/>
</g>
</g>
</g>
<g clip-path="url(#clip-15)">
<g clip-path="url(#clip-16)">
<g clip-path="url(#clip-17)">
<path fill-rule="nonzero" fill="url(#linear-pattern-6)" d="M 3468 1547.21875 L 0 1547.21875 L 0 2400 L 3468 2400 Z M 3468 1547.21875 "/>
</g>
</g>
</g>
</svg>
